<svg viewBox="0 0 2850 1800" xmlns="http://www.w3.org/2000/svg"><defs><linearGradient id="prefix__a" x1="1425" x2="1425" y1="4.641" y2="1804.6" gradientUnits="userSpaceOnUse"><stop stop-color="#7C4A74" offset="0"/><stop stop-color="#FA798D" offset="1"/></linearGradient></defs><path fill="url(#prefix__a)" d="M0 0h2850v1800H0z"/><circle cx="1409.8" cy="990.67" r="597.05" fill="#e5edd4" opacity=".08"/><circle cx="1409.8" cy="990.67" r="429.67" fill="#e5edd4" opacity=".08"/><circle cx="1409.8" cy="990.67" r="316.81" fill="#fff"/><path d="M1707.5 264.5c.588-1.213.61-2.531-.232-3.621a3.404 3.404 0 00-2.719-1.312c-.903.002-1.843.357-2.477 1.008-1.051 1.079-1.134 2.629-.467 3.931.733 1.433 2.861 1.965 4.201 1.101 1.462-.943 1.885-2.668 1.101-4.201l-.032-.063.309.733c0-.019-.01-.037-.011-.056v1.632c0-.016 0-.033.01-.049l-.309.733c.01-.014.016-.028.023-.042l-.48.621.037-.036-.621.48.048-.029-.733.31a.416.416 0 01.12-.036l-.816.11a.91.91 0 01.202-.002l-.816-.11a.446.446 0 01.12.034l-.733-.31.049.028-.621-.48.038.035-.48-.621c.01.014.016.028.024.042l-.309-.733c0 .016.01.033.01.049v-1.632c0 .019-.01.038-.01.056l.309-.733-.031.064c-.365.752-.538 1.536-.31 2.366.196.712.747 1.484 1.411 1.835 1.376.726 3.453.441 4.2-1.102zM1717.6 179.12l-.826.826c-1.137 1.137-1.222 3.22 0 4.342 1.226 1.125 3.128 1.214 4.342 0l.826-.826c1.137-1.137 1.222-3.22 0-4.342-1.226-1.126-3.129-1.214-4.342 0zM1757.5 137l-.826-.826c-1.137-1.137-3.22-1.222-4.342 0-1.125 1.226-1.214 3.128 0 4.342l.826.826c1.137 1.137 3.22 1.222 4.342 0 1.126-1.225 1.214-3.128 0-4.342zM1811.2 167.25v-.826c0-1.606-1.412-3.144-3.07-3.07-1.663.075-3.07 1.349-3.07 3.07v.826c0 1.606 1.412 3.144 3.07 3.07 1.663-.075 3.07-1.349 3.07-3.07zM1760.8 334.04l-.084-2.474c-.055-1.603-1.373-3.146-3.07-3.07-1.617.072-3.129 1.351-3.07 3.07l.084 2.474c.055 1.603 1.373 3.146 3.07 3.07 1.616-.072 3.128-1.351 3.07-3.07zM1726.9 381.41l-.826-.826c-1.137-1.137-3.22-1.222-4.342 0-1.125 1.226-1.214 3.128 0 4.342l.826.826c1.137 1.137 3.22 1.222 4.342 0 1.125-1.226 1.214-3.129 0-4.342zM1647.2 280.6h-.511c-3.951 0-3.958 6.14 0 6.14h.511c3.951 0 3.958-6.14 0-6.14h-.511c-3.951 0-3.958 6.14 0 6.14h.511c3.951 0 3.958-6.14 0-6.14zM1576.1 280.6h-.826c-1.606 0-3.145 1.412-3.07 3.07.074 1.663 1.349 3.07 3.07 3.07h.826c1.606 0 3.144-1.412 3.07-3.07-.075-1.663-1.349-3.07-3.07-3.07zM1575.9 355.51v-.511c0-3.951-6.14-3.958-6.14 0v.511c0 3.951 6.14 3.958 6.14 0v-.511c0-3.951-6.14-3.958-6.14 0v.511c0 3.951 6.14 3.958 6.14 0zM1475.9 313.09l.826-.826c1.137-1.137 1.222-3.22 0-4.342-1.226-1.125-3.128-1.214-4.342 0l-.826.826c-1.137 1.137-1.222 3.22 0 4.342 1.226 1.125 3.129 1.213 4.342 0zM1421.7 255.36c3.951 0 3.958-6.14 0-6.14-3.951 0-3.958 6.14 0 6.14zM1548.6 186.55l-.826-.826c-1.137-1.137-3.22-1.222-4.342 0-1.125 1.226-1.214 3.128 0 4.342l.826.826c1.137 1.137 3.22 1.222 4.342 0 1.125-1.226 1.213-3.129 0-4.342zM1397 378.03h-.826c-1.606 0-3.144 1.412-3.07 3.07.074 1.663 1.349 3.07 3.07 3.07h.826c1.606 0 3.145-1.412 3.07-3.07-.074-1.663-1.349-3.07-3.07-3.07zM1527.4 463.9h-.826c-1.606 0-3.145 1.412-3.07 3.07.074 1.663 1.349 3.07 3.07 3.07h.826c1.606 0 3.144-1.412 3.07-3.07-.074-1.663-1.349-3.07-3.07-3.07zM1929.6 523.28h-1.617c-1.606 0-3.144 1.412-3.07 3.07.075 1.663 1.349 3.07 3.07 3.07h1.617c1.606 0 3.145-1.412 3.07-3.07-.074-1.663-1.348-3.07-3.07-3.07zM2096.1 422.67c3.951 0 3.958-6.14 0-6.14-3.951-.001-3.957 6.14 0 6.14zM2272.5 427.72l-1.598-.175c-.732-.08-1.672.401-2.171.899-.532.533-.934 1.406-.899 2.171.036.794.296 1.618.899 2.171.636.584 1.316.805 2.171.899l1.598.175c.732.08 1.672-.401 2.171-.899.532-.533.934-1.406.899-2.171-.035-.794-.296-1.618-.899-2.171-.636-.584-1.316-.805-2.171-.899zM1915 253.17h-.89c-3.951 0-3.958 6.14 0 6.14h.89c3.951.001 3.958-6.14 0-6.14h-.89c-3.951 0-3.958 6.14 0 6.14h.89c3.951.001 3.958-6.14 0-6.14zM2039.5 227.3h-.89c-3.951 0-3.958 6.14 0 6.14h.89c3.951.001 3.957-6.14 0-6.14h-.89c-3.951 0-3.958 6.14 0 6.14h.89c3.951.001 3.957-6.14 0-6.14zM1880 79.395l-1.617-1.617c-1.137-1.137-3.22-1.222-4.342 0-1.125 1.226-1.214 3.128 0 4.342l1.617 1.617c1.137 1.137 3.22 1.222 4.342 0 1.125-1.226 1.214-3.129 0-4.342zM1939.3 71.697c3.951 0 3.958-6.14 0-6.14-3.951-.001-3.958 6.14 0 6.14zM1816.3 92.723c3.951 0 3.958-6.14 0-6.14-3.951-.001-3.957 6.14 0 6.14zM1853.5 7.001c3.951 0 3.958-6.14 0-6.14-3.951 0-3.957 6.14 0 6.14zM1929.6 31.591h-1.617c-1.606 0-3.144 1.412-3.07 3.07.075 1.663 1.349 3.07 3.07 3.07h1.617c1.606 0 3.145-1.412 3.07-3.07-.074-1.663-1.348-3.07-3.07-3.07zM2022.8 37.343l-1.617 1.617c-1.137 1.137-1.222 3.22 0 4.342 1.226 1.125 3.128 1.214 4.342 0l1.617-1.617c1.137-1.137 1.222-3.22 0-4.342-1.225-1.125-3.128-1.214-4.342 0zM2060.4 94.505v-1.617c0-1.606-1.412-3.144-3.07-3.07-1.664.075-3.07 1.349-3.07 3.07v1.617c0 1.606 1.412 3.144 3.07 3.07 1.663-.075 3.07-1.349 3.07-3.07zM2092.7 143.03v-.89c0-3.951-6.141-3.958-6.141 0v.89c0 3.951 6.141 3.958 6.141 0v-.89c0-3.951-6.141-3.958-6.141 0v.89c0 3.951 6.141 3.958 6.141 0zM2190 8.948h-1.617c-1.606 0-3.145 1.412-3.07 3.07.075 1.663 1.349 3.07 3.07 3.07H2190c1.606 0 3.144-1.412 3.07-3.07-.075-1.663-1.349-3.07-3.07-3.07zM2266 5.384c3.951 0 3.958-6.14 0-6.14-3.951 0-3.958 6.14 0 6.14zM2266 120.55h-1.617c-1.606 0-3.144 1.412-3.07 3.07.074 1.663 1.349 3.07 3.07 3.07H2266c1.606 0 3.145-1.412 3.07-3.07-.074-1.664-1.349-3.07-3.07-3.07zM2490.8 17.035h-.89c-3.951 0-3.958 6.14 0 6.14h.89c3.951 0 3.957-6.14 0-6.14h-.89c-3.951 0-3.958 6.14 0 6.14h.89c3.951 0 3.957-6.14 0-6.14zM2569.9 58.922v-1.617c0-1.606-1.412-3.144-3.07-3.07-1.663.075-3.07 1.349-3.07 3.07v1.617c0 1.606 1.412 3.144 3.07 3.07 1.663-.074 3.07-1.349 3.07-3.07zM2642.8 351.55a.48.48 0 01-.156.004l.816.11-.069-.016.733.309a.387.387 0 01-.118-.064l.621.48a.438.438 0 01-.093-.099l.48.621a.636.636 0 01-.068-.126l.31.733a1.201 1.201 0 01-.055-.222l.11.816a.948.948 0 010-.238l-.11.816c.012-.08.028-.15.053-.227l-.31.733a.898.898 0 01.106-.189l-.48.621a.486.486 0 01.1-.092l-.622.48.058-.033-.733.31a.408.408 0 01.133-.034l-.816.11.075.001-.816-.11.081.014c.833.145 1.612.132 2.366-.309.637-.373 1.244-1.103 1.411-1.835.34-1.492-.452-3.483-2.145-3.777-1.251-.217-2.443-.049-3.387.883a3.837 3.837 0 00-1.108 2.677c0 .891.239 1.699.785 2.406.654.846 1.732 1.497 2.846 1.385.834-.084 1.558-.286 2.171-.899.532-.533.934-1.406.899-2.171-.066-1.523-1.357-3.241-3.068-3.068zM2480.8 478.62c-.027-.087-.038-.24-.084-.315.237.377.054.677.079.251.022-.385-.039.719-.03.336.01-.4.379-.117-.104.2.029-.019.165-.246.168-.281 0 .06-.456.566-.167.246.335-.372-.479.287-.174.132.31-.158-.777.265-.213.081 1.524-.497 2.672-2.148 2.145-3.777-.493-1.522-2.142-2.678-3.777-2.144-2.833.925-4.673 3.961-3.762 6.903.474 1.532 2.164 2.666 3.777 2.144 1.54-.498 2.651-2.133 2.142-3.776zM2596.8 573.4l-1.624-3.232c-.722-1.438-2.868-1.961-4.2-1.101-1.47.948-1.874 2.662-1.102 4.201l1.624 3.232c.722 1.438 2.868 1.961 4.2 1.101 1.47-.949 1.874-2.663 1.102-4.201zM2744.6 508.56v-1.617c0-1.606-1.412-3.144-3.07-3.07-1.664.075-3.07 1.349-3.07 3.07v1.617c0 1.606 1.412 3.144 3.07 3.07 1.663-.074 3.07-1.349 3.07-3.07zM2746.2 658.97v-1.617c0-1.606-1.412-3.144-3.07-3.07-1.663.075-3.07 1.349-3.07 3.07v1.617c0 1.606 1.412 3.144 3.07 3.07 1.664-.074 3.07-1.349 3.07-3.07zM2393.6 709.11v-1.617c0-1.606-1.412-3.144-3.07-3.07-1.663.074-3.07 1.349-3.07 3.07v1.617c0 1.606 1.412 3.144 3.07 3.07 1.663-.074 3.07-1.349 3.07-3.07zM1905.1 730.14v-1.617c0-1.606-1.412-3.144-3.07-3.07-1.663.075-3.07 1.349-3.07 3.07v1.617c0 1.606 1.412 3.144 3.07 3.07 1.663-.074 3.07-1.349 3.07-3.07zM1591.5 632.93c3.951 0 3.958-6.14 0-6.14-3.951 0-3.957 6.14 0 6.14zM1392.4 587.81v-1.617c0-1.606-1.412-3.144-3.07-3.07-1.663.074-3.07 1.349-3.07 3.07v1.617c0 1.606 1.412 3.144 3.07 3.07 1.664-.074 3.07-1.349 3.07-3.07zM1061 642.63c3.951 0 3.958-6.14 0-6.14-3.951 0-3.958 6.14 0 6.14zM955.34 467.57l-1.617 1.617c-1.137 1.137-1.222 3.22 0 4.342 1.226 1.125 3.128 1.214 4.342 0l1.617-1.617c1.137-1.137 1.222-3.22 0-4.342-1.226-1.125-3.129-1.214-4.342 0zM975.3 371.24h-1.617c-1.606 0-3.144 1.412-3.07 3.07.075 1.663 1.349 3.07 3.07 3.07h1.617c1.606 0 3.144-1.412 3.07-3.07-.074-1.664-1.349-3.07-3.07-3.07zM1200.1 304.6c3.951 0 3.958-6.14 0-6.14-3.951-.001-3.958 6.14 0 6.14zM958.57 181.29l-1.617 1.617c-1.137 1.137-1.222 3.22 0 4.342 1.226 1.125 3.128 1.214 4.342 0l1.617-1.617c1.137-1.137 1.222-3.22 0-4.342-1.226-1.125-3.129-1.213-4.342 0zM951.04 93.052h-.89c-3.951 0-3.958 6.14 0 6.14h.89c3.951 0 3.958-6.14 0-6.14h-.89c-3.951 0-3.958 6.14 0 6.14h.89c3.951 0 3.958-6.14 0-6.14zM684.17 120.55h-1.617c-1.606 0-3.144 1.412-3.07 3.07.075 1.663 1.349 3.07 3.07 3.07h1.617c1.606 0 3.144-1.412 3.07-3.07-.074-1.664-1.348-3.07-3.07-3.07zM723.15 44.366v.89c0 3.951 6.14 3.958 6.14 0v-.89c.001-3.951-6.14-3.958-6.14 0v.89c0 3.951 6.14 3.958 6.14 0v-.89c.001-3.951-6.14-3.958-6.14 0zM682.25 390.5l-.175-1.598c-.092-.838-.281-1.553-.899-2.171-.532-.533-1.406-.934-2.171-.899-.794.036-1.618.296-2.171.899-.516.562-.986 1.378-.899 2.171l.175 1.598c.092.838.281 1.553.899 2.171.533.533 1.406.934 2.171.899.794-.036 1.618-.296 2.171-.899.516-.562.986-1.378.899-2.171zM478.76 37.732h3.235c1.606 0 3.144-1.412 3.07-3.07-.075-1.663-1.349-3.07-3.07-3.07h-3.235c-1.606 0-3.144 1.412-3.07 3.07.074 1.663 1.349 3.07 3.07 3.07zM226.45 91.105h1.617c1.606 0 3.144-1.412 3.07-3.07-.074-1.663-1.349-3.07-3.07-3.07h-1.617c-1.606 0-3.144 1.412-3.07 3.07.074 1.664 1.349 3.07 3.07 3.07zM271.73 274.11c-.386.015.539.1.516.095-.357-.088.512.238.475.22-.359-.18.591.531.374.295-.205-.223.479.667.312.408-.267-.414.257.787.123.296-.133-.486.034.906.038.27l.009-.202c.015.003-.139.871-.061.52.124-.561-.29.548-.136.287.185-.314-.348.43-.32.4.274-.296-.595.41-.381.285.246-.144-.764.288-.483.208.236-.068-.915.067-.471.082 1.607.056 3.143-1.452 3.07-3.07-.077-1.712-1.349-3.01-3.07-3.07-2.519-.088-4.301 2.183-4.296 4.562.005 2.373 1.779 4.655 4.302 4.557 1.603-.062 3.146-1.368 3.07-3.07-.073-1.612-1.352-3.139-3.071-3.073zM54.839 434.16v-1.617c0-1.606-1.412-3.144-3.07-3.07-1.663.074-3.07 1.349-3.07 3.07v1.617c0 1.606 1.412 3.144 3.07 3.07 1.663-.074 3.07-1.349 3.07-3.07zM162.3 566.23l-1.617-1.617c-1.137-1.137-3.22-1.222-4.342 0-1.125 1.226-1.214 3.128 0 4.342l1.617 1.617c1.137 1.137 3.22 1.222 4.342 0 1.125-1.225 1.213-3.128 0-4.342zM93.06 731.6l1.642-3.222c.728-1.43.422-3.396-1.101-4.201-1.401-.74-3.422-.426-4.201 1.101l-1.642 3.222c-.728 1.43-.422 3.396 1.101 4.201 1.401.741 3.423.427 4.201-1.101zM294.93 868.68l-1.617-1.617c-1.137-1.137-3.22-1.222-4.342 0-1.125 1.226-1.214 3.128 0 4.342l1.617 1.617c1.137 1.137 3.22 1.222 4.342 0 1.125-1.226 1.213-3.129 0-4.342zM517.41 613.69v-1.617c0-1.606-1.412-3.144-3.07-3.07-1.663.075-3.07 1.349-3.07 3.07v1.617c0 1.606 1.412 3.144 3.07 3.07 1.663-.074 3.07-1.349 3.07-3.07zM663.14 636.16c3.951 0 3.958-6.14 0-6.14-3.951-.001-3.957 6.14 0 6.14zM1230.3 100.78h-3.937c-3.951 0-3.958 6.14 0 6.14h3.937c3.951 0 3.957-6.14 0-6.14h-3.937c-3.951 0-3.958 6.14 0 6.14h3.937c3.951 0 3.957-6.14 0-6.14zM1481.3 65.696v-6.359c0-3.951-6.14-3.958-6.14 0v6.359c-.001 3.951 6.14 3.957 6.14 0zM1339.2 189.36l-6.234-.881c-1.64-.232-3.298.401-3.777 2.144-.395 1.438.492 3.543 2.144 3.777l6.234.88c1.64.232 3.298-.401 3.777-2.144.396-1.438-.491-3.543-2.144-3.776zM1588.5 74.225l6.359-6.359c2.798-2.798-1.543-7.141-4.342-4.342l-6.359 6.359c-2.798 2.798 1.543 7.141 4.342 4.342z" fill="#fff"/><path d="M642.34 589.83c-20.96-18.894-55.508-20.38-78.013-3.355 11.931-32.422-3.462-70.679-30.764-91.848s-63.884-27.295-98.285-24.121c-74.437 6.868-143.33 56.882-172.92 125.53-20.809-19.256-53.495-24.414-79.222-12.5s-42.936 40.177-41.711 68.502l512.31 15.039c14.606-24.143 9.556-58.353-11.404-77.247zM2073.8 561.49c-19.895-11.098-47.225-6.48-62.37 10.538 3.773-57.847-48.954-110.83-106.82-114.32s-113.47 36.978-135.32 90.674c-33.831-26.523-91.468-11.023-107.43 28.891-10.972-18.167-38.062-20.801-56.608-10.483s-29.999 29.81-38.509 49.253l530.86 4.053c6.525-21.827-3.904-47.507-23.8-58.605zM1889.2 236.05c-17.031-10.021-40.17-8.384-55.62 3.935-3.713-49.583-51.873-91.448-101.49-88.224-48.646 3.16-86.568 41.661-119.46 77.636-13.891-22.754-43.852-32.13-70.079-27.343-26.226 4.787-48.937 21.351-67.331 40.648-8.153-12.141-27.052-12.355-39.305-4.371s-19.449 21.581-26.129 34.591l502.99 13.661c3.265-19.489-6.541-40.511-23.571-50.533zM2540.6 352.63c-13.082-3.248-27.083 1.928-37.661 10.283 7.79-23.822-7.246-51.192-29.824-62.072s-50.093-7.431-72.47 3.856c-22.377 11.288-40.416 29.552-56.734 48.575-3.906-16.947-25.848-24.184-42.374-18.767s-28.604 19.318-39.813 32.615l299.71 15.474c2.985-13.144-7.752-26.716-20.833-29.964zM2695.1 724.84c-2.162-7.368-9.385-13.863-16.925-12.411-5.677 1.093-11.103 6.31-16.4 3.994-.036-19.817-2.022-43.258-19.061-53.378-16.548-9.828-38.212-.858-52.486 12.052-12.451 11.261-22.215 25.474-28.26 41.137-10.855-9.642-31.406-1.891-33.19 12.517l165.34 18.857c1.574-7.516 3.138-15.4.977-22.768zM732.02 230.99c-18.294-6.876-41.247 4.999-46.203 23.904-4.871-39.41-13.936-85.059-49.47-102.78-29.271-14.601-65.896-2.889-90.695 18.441s-40.95 50.677-59.074 77.906c-1.378 2.071-2.961 4.276-5.35 4.97-5.487 1.593-9.167-5.232-13.149-9.329-8.634-8.886-24.686-5.158-32.718 4.276s-10.191 22.378-12.046 34.629l327.72-3.594c8.723-17.489-.726-41.543-19.019-48.419z" fill="#fff" opacity=".11"/><g fill="#812e52"><path d="M1106.9 737.47c7.239-6.171 16.166-12.765 25.355-10.303 5.082 1.362 12.325 4.019 17.286 10.312 0 0 13.422-10 20.73-10.906s15.096 1.054 20.569 5.98c-4.964-2.723-11.137-1.604-16.462.32a62.352 62.352 0 00-25.668 17.566c-3.798-6.463-8.132-13.387-15.177-15.949-8.854-3.217-18.454-1.694-26.633 2.98M1156.5 773.59c7.239-6.171 16.166-12.765 25.355-10.303 5.082 1.362 12.325 4.019 17.286 10.312 0 0 13.422-10 20.73-10.906s15.096 1.054 20.569 5.98c-4.964-2.723-11.137-1.604-16.462.32a62.352 62.352 0 00-25.668 17.566c-3.798-6.463-8.132-13.387-15.177-15.949-8.854-3.218-18.454-1.695-26.633 2.98M1396.6 875.92c3.176-2.707 7.092-5.6 11.123-4.52 2.23.597 5.407 1.763 7.583 4.524 0 0 5.888-4.387 9.094-4.784s6.622.463 9.023 2.624c-2.178-1.195-4.886-.703-7.222.141a27.349 27.349 0 00-11.26 7.706c-1.666-2.835-3.568-5.873-6.658-6.997-3.883-1.413-8.095-.744-11.683 1.306M1015 830.86c-3.336-24.556 21.695-26.905 26.655-20.612 0 0 16.318-15.555 33 16.475-18.017-13.079-26.943-11.411-33.831-3.514-3.798-6.462-13.813-10.499-25.824 7.651M1325.4 761.78c-3.336-24.556 21.869-23.255 26.829-16.962 0 0 16.144-19.204 32.826 12.825-18.017-13.079-26.943-11.411-33.831-3.514-3.798-6.463-13.812-10.5-25.824 7.651M1269.6 845.15c-.409-15.471 15.151-12.957 17.804-8.715 0 0 11.322-10.83 19.511 10.184-10.3-9.339-15.954-8.908-20.765-4.471-1.92-4.269-7.865-7.453-16.55 3.002M953.74 724.46c7.486-1.524 16.322-2.689 21.823 2.612 3.043 2.932 7.1 7.614 8.141 13.965 0 0 13.319-1.812 18.807.391s10.2 6.607 12.132 12.196c-2.43-3.843-7.204-5.455-11.694-6.172a50.087 50.087 0 00-24.866 2.37c-.158-6.018-.513-12.568-4.469-17.107-4.97-5.702-12.309-8.362-19.874-8.255M1401.6 805.12c3.481-3.822 7.844-7.987 12.966-7.288 2.833.387 6.92 1.324 10.024 4.378 0 0 6.553-6.309 10.431-7.297s8.211-.463 11.499 1.818c-2.862-1.129-6.114-.103-8.854 1.298a33.89 33.89 0 00-12.638 11.225c-2.49-3.225-5.299-6.662-9.273-7.561-4.992-1.13-10.064.348-14.155 3.427"/></g><g><path d="M2278.7 669.78c17.341-24.772 50.528-75.421 50.528-100.23 0-33.586-27.227-60.814-60.813-60.814-33.587 0-60.814 27.227-60.814 60.814 0 24.813 33.187 75.462 50.528 100.23zM2257 681.96h22.065v14.359H2257z" fill="#631f3d"/><path d="M2091.1 783.95c12.051-17.215 35.115-52.414 35.115-69.658 0-23.341-18.922-42.263-42.263-42.263s-42.263 18.922-42.263 42.263c0 17.244 23.064 52.443 35.115 69.658zM2076.1 792.42h15.334v9.979H2076.1z" fill="#812e52"/></g><g><path d="M2304.2 854.44c-86.218 31.25-166.13 113.84-225.01 120.54-58.881 6.696-92.526-78.125-180.85-49.107s-342.77 180.8-485.76 187.5-584.6-290.18-681.33-312.5c-80.531-18.583-314.26 71.521-390.3 102.23l-.014-.587a1448.195 1448.195 0 01-107.24 36.943c-37.727 11.365-78.787 21.115-115.88 7.849-45.161-16.151-73.293-62.465-117.06-82.043v531.59h2849.3v-283.37c0-.001-459.61-290.29-545.83-259.04z" fill="#812e52"/><path d="M143.82 953.04c-8.825-.881-17.531-2.7-26.027-5.739C72.632 931.15 44.5 884.836.733 865.258v32.495c43.772 19.578 71.903 65.892 117.06 82.043 8.497 3.039 155.41 13.051 164.23 13.932zM1898.3 925.86c-88.321 29.018-342.77 180.8-485.76 187.5-142.38 6.668-580.79-287.62-680.05-312.18 0 0 558.57 396.74 700.95 390.07 143-6.696 339.45-164.02 419.37-211.52 23.119-13.739 85.745-59.816 85.745-59.816-12.13-.577-25.418 1.074-40.254 5.949zM2304.2 854.44c-81.828 29.659-157.97 105.55-215.85 118.93 0 0 94.248-20.879 167.34-68.141 17.9-11.575 57.363-52.755 57.363-52.755-3.274.374-6.237 1.019-8.849 1.966z" fill="#b34070"/></g><g><path d="M2493.3 1166.2c-13.86-2.397-28.014 1.286-41.367 5.706-107.21 35.488-203.43 121.21-315.88 110.78-112.95-10.469-213.23-118.04-322.52-87.663-40.359 11.216-77.384 41.065-118.96 35.92-14.056-1.74-27.265-7.469-40.938-11.163-68.658-18.549-139.23 15.018-204.17 44.002-64.945 28.984-142.1 53.789-204.66 19.969-18.812-10.169-36.252-25.595-57.614-26.583-23.371-1.08-47.428 15.624-68.802 6.109-10.825-4.819-17.837-15.323-24.018-25.433-22.765-37.234-42.83-76.9-73.603-107.84s-75.674-52.23-118-41.579c-26.725 6.726-52.38 25.624-79.155 19.102-17.409-4.241-30.366-18.395-42.202-31.847l-97.185-110.46c-8.488-9.647-17.462-19.641-29.46-24.24-14.506-5.56-30.78-2.251-45.74 1.938-81.451 22.81-153.92 69.197-230.56 104.98s-163.76 61.334-245.34 38.979c-56.064-15.363-91.953-55.426-132.37-97.209l-.725 177.61c0 73.096 29.359 127.84 80.445 166.39 38.216 28.833 90.739 25.951 138.52 22.976 276.29-17.204 553.26 6.532 830.01 12.982 201.8 4.703 403.68.21 605.49-4.283l679.36-15.126c43.441-.967 461.27 11.472 501.41-5.18s-149.13-73.148-188.88-113.65c-21.418-21.823-122.96-59.97-153.09-65.181z" fill="#75294a"/></g><g fill="#672140"><path d="M-2.097 1471.1c24.995-49.224 70.367-84.931 117.63-113.46 206.37-124.54 466.96-136.58 699.72-73.962 126.67 34.077 249.83 90.409 345.08 180.6"/><path d="M941.68 1328.4c163.31 63.955 346.74 32.617 518.41-3.292s351.58-75.337 519.8-25.727c49.433 14.578 96.916 36.687 147.85 44.542 77.853 12.006 156.32-10.156 234.48-19.957 80.286-10.068 162.2-7.005 241.51 9.029 69.173 13.985 142.15 42.442 176.86 103.89 3.806 6.738 7.146 14.781 4.388 22.011-3.213 8.427-13.054 11.878-21.749 14.272-409.97 112.88-841.68 118.87-1266.4 98.019-144.79-7.108-289.94-17.31-432.03-46.018-37.43-7.562-75.962-17.037-105.86-40.795-29.896-23.757-48.665-65.683-34.475-101.14M282.02 1284.4l10.046-21.837c.497-1.081 1.51-2.373 2.587-1.868.489.229.745.763.963 1.258l7.859 17.801a769.284 769.284 0 0132.732-62.282 299.455 299.455 0 0116.847 52.082l7.555-15.581c.301-.621.627-1.271 1.201-1.655 2.011-1.344 4.147 1.538 4.867 3.847l3.075 9.854 9.138-19.825a53.935 53.935 0 015.346 18.267M626.39 1252.5a32.042 32.042 0 018.227-12.992l6.31 20.27a411.44 411.44 0 0136.512-53.572 213.21 213.21 0 0110.025 38.135 34.655 34.655 0 017.551-10.845l3.293 14.625 11.547-9.619a162.995 162.995 0 016.323 35.136l15.525-21.409a27.532 27.532 0 015.221 15.576l10.619-8.529a89.759 89.759 0 015.906 21.065"/><path d="M905.54 1312.9a119.455 119.455 0 018.911-22.442 109.952 109.952 0 004.829 26.381 61.539 61.539 0 017-13.517c4.38 6.528-1.477 17.482 4.721 22.319a309.03 309.03 0 0118.785-48.026c.883-1.799 2.825-3.904 4.475-2.766a641.14 641.14 0 018.449 68.293l12.112-26.002a213.094 213.094 0 014.545 27.133l9.765-14.654a73.574 73.574 0 011.661 21.424M1497.3 1320.7l16.815-3.483a237.91 237.91 0 00-11.011-27.586 201.972 201.972 0 00-5.804 31.069zM1514.7 1318.9c.213-.657.418-1.316.63-1.973l-1.198.248c.189.575.383 1.149.568 1.725zM1569.4 1305.7l15.74-3.261a108.996 108.996 0 00-6.969-23.351l-9.096 25.457a323.67 323.67 0 00-15.649-43.926 744.646 744.646 0 00-6.309 26.698 419.232 419.232 0 00-12.229-34.856 1937.614 1937.614 0 01-19.602 64.449l31.57-6.54 21.124-3.729.185.45.184-.515 1.235-.218c-.059-.219-.124-.438-.184-.658zM1672.6 1265.6c-.309-4.815-.574-10.277-4.256-13.395a506.907 506.907 0 00-7.096 19.753 348.445 348.445 0 01-2.777-29.168c-.293-5.584-.545-11.484-3.582-16.179l-8.104 39.762c-1.897-6.308-4.423-12.351-8.423-17.542l-15.775 48.906 55.145-5.661a106.312 106.312 0 01-5.132-26.476zM1716 1261.9c-.165-1.558-1.097-3.65-2.576-3.134-.757.264-1.095 1.125-1.342 1.889l-9.139 28.297-9.556-35.417-11.837 38.472 37.149-4.613L1716 1261.9zM1825.3 1285.7c.347-1.262.71-2.519 1.076-3.776l-1.62-.09c.166 1.29.335 2.58.544 3.866z"/><path d="M1821.7 1204.2l-24.95 76.085 28.028 1.554c-3.332-25.67 1.091-52.048-3.078-77.639zM1849.2 1255.4a131.917 131.917 0 00-9.112 22.777 135.663 135.663 0 01-1.587-29.761 279.94 279.94 0 00-12.053 33.432l25.534 1.416a121.097 121.097 0 00-2.782-27.864z"/><path d="M1795.8 1251.6c-.231-7.786-.529-15.85-3.987-22.83l-18.633 43.121-3.109-15.23a83.294 83.294 0 00-8.558 23.431l7.9.516-.524 1.213 26.148.566c.279.171.579.314.925.383l.118-.36.635.014-.053-1.787.138-.422-.151-.01c-.282-9.536-.566-19.071-.849-28.607z"/></g><g><path fill="#fa798d" d="M0 1396.8h2850v403.15H0z"/><path d="M1240.5 1622.4a1015.074 1015.074 0 01-177.77 48.101c-13.122 2.298-16.754 19.296-5.745 26.796 10.588 7.213 23.381 11.91 35.953 14.697 22.69 5.031 46.421 5.552 68.373 13.185 9.727 3.382 20.249 9.917 20.975 20.189-73.898 28.477-154.52 33.339-230.78 54.627l811.85-1.037c-3.249-7.204-10.919-13.69-18.333-17.497-71.925-36.929-165.1-10.26-235.17-50.61l122.75-32.956c9.115-2.447 20.169-7.241 20.269-16.678.105-9.999-12.042-14.781-21.845-16.753a2008.322 2008.322 0 00-202.41-30.094l131.62-25.151c8.935-1.707 20.437-7.096 18.248-15.925-1.683-6.791-10.285-8.64-17.248-9.322a536.764 536.764 0 01-137.12-32.003c16.906-16.098 46.53-15.47 66.739-24.717 9.189-4.204 6.24-18-3.862-18.219l-104.49-2.268c-7.103-.154-16.738-2.813-15.33-10.408.586-3.159 2.975-5.684 6.004-6.753l72.015-25.403c3.764-1.328 6.367-4.984 6.002-8.958-.424-4.612-4.372-5.856-7.897-6.807l-46.138-12.437c.217-6.506 5.898-11.238 10.128-16.186 5.2-6.083 8.177-17.135-2.677-19.577-1.369-.308-2.785-.398-4.187-.349-24.727.861-25.013-.382-17.485-3.045h-63.843c-2.729 2.695-22.978 2.164-23.554 4.977-1.123 5.487 13.554 14.777 7.873 16.231-12.287 3.145-27.528 6.387-33.732 9.333-2.463 1.169-5.066 2.463-6.468 4.802-6.061 10.116 15.784 17.508 15.257 29.289-.357 7.984-10.313 11.188-18.228 12.294l-32.416 4.532c-11.888 1.662-27.433 7.39-23.145 20.959 2.607 8.248 11.072 12.94 19.639 11.746 11.24-1.566 33.37 7.255 26.803 20.502-1.301 2.624-3.51 4.703-6.136 6.002-21.07 10.426-44.086 16.895-67.5 18.992-11.305 1.012-26.772 5.542-25.036 16.758 1.565 10.112 15.364 11.321 25.596 11.256 24.374-.154 48.745 7.52 68.601 21.667 1.76 1.254 3.082 3.087 3.56 5.195 1.348 5.917-4.67 9.152-9.715 11.023z" fill="#fff" opacity=".563"/><path d="M1477.7 1483.9c-13.467-1.287-27.036-.339-40.532.609h-.115c-3.787.2-3.757 5.865.026 6.124 1.792.123 3.593.173 5.382.206 11.954.221 24.129-.259 35.587-3.468 1.891-.53 1.674-3.281-.282-3.469-.021 0-.044-.01-.066-.01zM1443.1 1424c-.117-.329-.507-.456-.847-.536-7.948-1.868-13.821-1.926-21.671-.197-3.142.604-6.487 1.6-7.259 2.996-.155.28-.271.639-.097.908.158.243.482.302.77.339 8.342 1.063 17.026 2.095 24.991-.602 1.31-.443 2.611-1 3.654-1.907.294-.258.589-.633.459-1.001zM1626 1514.6c-2.831-1.56-6.79-3.785-10.021-3.869-15.41-.82-31.009 2.177-45.017 8.651-.683.316-1.468.801-1.45 1.553.02.829.979 1.256 1.778 1.477a121.32 121.32 0 0038.786 4.212c5.983-.321 12.313-1.242 16.902-5.095 1.004-.843 1.96-1.951 1.956-3.261-.01-1.645-1.494-2.874-2.934-3.668zM1700.9 1645.3c-.254-1.259-1.34-2.163-2.41-2.873-5.987-3.972-13.365-5.122-20.506-5.91-22.418-2.476-57.245-2.589-79.634.137h.245c-1.004.102-2.008.203-3.007.342-1.056.147-2.171.343-2.971 1.049-1.577 1.392-1.061 4.151.49 5.572 1.552 1.421 3.741 1.854 5.814 2.213a377.78 377.78 0 0095.52 4.233c3.031-.251 7.061-1.777 6.459-4.758zM1240.2 1436.7c-1.999-1.991-2.712-2.337-4.412-2.964a75.322 75.322 0 00-29.272-.503c-1.859.336-3.921.894-4.858 2.534-1.012 1.773-.181 4.151 1.37 5.48s3.628 1.838 5.639 2.197a57.67 57.67 0 0030.099-2.709c1.083-.403 2.333-1.082 2.365-2.237.019-.693-.438-1.308-.931-1.798zM1125.2 1571.1l-.01-.001a2.005 2.005 0 00-.336-.028c-22.671-1.941-44.499-3.517-66.761 1.231-1.662.354-3.471.824-4.457 2.208-1.386 1.945-.357 4.848 1.558 6.275 1.916 1.427 4.411 1.754 6.787 1.992a200.318 200.318 0 0058.723-2.807c2.777-.549 5.92-1.447 7.104-4.018.906-1.967-.819-4.586-2.612-4.852zM1127 1631c-.468-.707-1.363-.978-2.192-1.16-4.54-.998-7.288-.405-12.245-.521l.736.031a65.036 65.036 0 00-16.688 1.348c-2.226.474-4.777 1.387-5.412 3.572-.946 3.254 3.072 5.672 6.4 6.313 9.336 1.797 19.339-.154 27.315-5.327 1.482-.961 3.061-2.783 2.086-4.256zM962.5 1749.5c-6.975.813-14.645 2.009-18.991 7.662-.546.71-.941 1.558-.941 2.454.001 2.55 2.749 3.459 5.022 3.804 11.879 1.806 24 .477 35.886-1.284a499.97 499.97 0 0082.405-19.456 1.77 1.77 0 001.162-1.235 1.762 1.762 0 00-1.851-2.207c-28.427 2.405-75.498 7.092-102.69 10.262z" fill="#fff" opacity=".563"/><path fill="none" opacity=".42" stroke="#fff" stroke-linecap="round" stroke-miterlimit="10" stroke-width="4" d="M739.47 1466.9h84.73M937.64 1466.9h320.86M1404.3 1466.9h113M1686.7 1466.9h196.2M2094.1 1466.9h123.4M2297.7 1466.9h38.6M373.95 1466.9h38.59M500.17 1466.9h138.62M595.09 1504.7h127.14M980.01 1504.7h29.69M1247.6 1504.7h84M1071.8 1757.3h29.7M1339.4 1757.3h84M1499.5 1504.7h35.6M1837.2 1504.7h140.7M2155.8 1504.7h34.6M710.7 1542.6h28.77M796.45 1542.6h93.8M1103.3 1542.6h39.3M1458.1 1542.6h132.8M1718.4 1542.6h27.5M1943.7 1542.6h68.4M739.47 1580.5h61.92M1576.4 1580.5h85.8M1837.2 1580.5h35.7M1430.3 1580.5h35.8M1054.5 1580.5h281.6M1040.6 1703.1h-85.94M1186.6 1703.1h-35.8M1562.4 1703.1h-281.6M869.41 1618.4h200.69M1130.2 1618.4h66.9M1722.9 1618.4h16.2M1293.9 1618.4h308.5M1011.3 1656.2h324.8M1390.2 1656.2h67.9M1579.4 1656.2h23"/></g><g fill="#531331"><path d="M960.24 1800c-70.422-54.091-140.84-138-211.27-192.09-7.397-5.682-14.96-11.455-23.764-14.534-8.638-3.021-17.96-3.27-27.107-3.534a2734.215 2734.215 0 01-201.98-13.338c-32.032-3.31-108.4-15.553-108.4-15.553-79.405-128.63-172.6-281.71-252-410.34-20.285-32.861-41.567-66.771-73.789-88.056-18.604-12.29-39.997-19.694-61.935-24.04v761.48zM2788.1 1062.6c-32.222 21.285-53.504 55.195-73.789 88.056-15.633 25.325-147.47 277.91-147.47 277.91s-433.38 161.84-442.01 164.86c-8.804 3.079-16.367 8.852-23.764 14.534-30.092 23.114-42.148 32.55-71.278 60.974l4.028 131.11h816.22v-761.48c-21.938 4.346-43.331 11.75-61.935 24.039z"/><path d="M2055.4 1649.4c-4.059-3.626-9.698-5.071-15.14-5.059s-10.785 1.345-16.063 2.67a100.883 100.883 0 0127.71-8.949c-5.968-10.613-17.947-16.071-29.146-20.851 13.109-.182 26.246 3.629 37.222 10.799a77.584 77.584 0 00-9.258-20.828 81.971 81.971 0 0127.222 28.571M2108.8 1608.5c-6.945-.515-12.819-7.243-12.392-14.194s7.081-12.909 14.036-12.57c-3.564-8.26-3.732-18.501 1.651-25.709s17.06-9.61 23.685-3.525c1.428-11.991 7.441-23.378 16.537-31.32 2.975-2.597 6.342-4.873 10.156-5.899 4.529-1.22 9.389-.589 13.846.874 9.651 3.167 17.927 10.319 22.459 19.409s5.264 20.003 1.986 29.617c-1.024 3.002-2.45 5.921-4.615 8.238-1.978 2.117-4.488 3.649-6.989 5.111a251.163 251.163 0 01-79.929 29.872M788.28 1656.6c-.252-15.625 24.082-65.327 21.451-77.799-2.251-10.672-6.236-20.898-8.987-31.453-5.316-20.397-5.951-41.681-6.556-62.751l8.908-1.582c-4.238 29.434 5.005 60.54 24.629 82.884 2.151-11.687 8.54-22.546 17.71-30.104 4.784-3.943 10.25-6.983 15.111-10.83 10.534-8.336 17.975-20.495 20.602-33.669l7.632 3.836c-9.953 14.004-15.137 31.34-27.114 43.659-4.839 4.977-10.686 9.012-14.799 14.603-6.272 8.525-35.171 81.943-38.464 108.89"/><path d="M808.32 1496c-10.496 3.956-22.077 4.988-33.107 2.952-6.124-1.131-12.227-3.277-16.935-7.354s-7.823-10.333-6.996-16.506c1.359-10.149 12.541-16.33 22.774-16.688-9.641-1.414-17.329-9.146-21.75-17.829-8.54-16.772-5.76-39.898 9.41-51.039 9.279-6.814 21.405-8.34 32.917-8.229 11.512.11 23.096 1.622 34.487-.043-1.788-6.265.135-13.444 4.814-17.978 4.68-4.533 11.916-6.227 18.121-4.24a42.132 42.132 0 015.662-21.409c1.177-2.027 2.607-4.03 4.685-5.114 1.995-1.04 4.339-1.108 6.589-1.094a129.633 129.633 0 0144.622 8.241c4.712 1.769 9.462 3.91 12.886 7.599 5.763 6.21 6.62 15.775 4.316 23.928-2.303 8.153-7.288 15.242-12.186 22.155 7.367-.835 15.019 3.697 17.828 10.559s.528 15.459-5.311 20.028c14.011 8.231 27.697 19.954 30.656 35.932 3.498 18.891-10.47 38.21-28.63 44.479-18.161 6.27-38.797 1.313-54.909-9.153-16.676 14.22-41.819 17.604-61.661 8.299-3.455-1.62-7.165-4.245-7.263-8.06M742.38 1594.4c9.4-17.774 12.294-38.899 8.022-58.546 8.822 6.235 14.251 16.387 16.883 26.865s2.751 21.4 2.855 32.203a98.412 98.412 0 0022.853-29.038c.548 17.801-6.442 35.713-18.902 48.437a145.608 145.608 0 0125.172-2.928l-21.904 17.11-50.915-2.713c7.192-5.616 10.445-15.256 9.987-24.37s-4.192-17.772-8.859-25.613c7.192 3.827 12.686 10.725 14.808 18.593zM838.07 1673.3c9.489-10.195 22.651-16.896 36.477-18.572-6.087-4.353-13.964-5.594-21.418-4.931s-14.627 3.071-21.718 5.461a68.146 68.146 0 0113.797-21.559c-11.771 3.693-21.898 12.342-27.387 23.39a100.838 100.838 0 00-3.813-17.134l-6.209 18.224 13.362 32.692c2.037-5.984 7.604-10.305 13.67-12.08 6.067-1.775 12.581-1.302 18.773-.033-4.141-3.836-9.904-5.86-15.534-5.458zM205.41 966.84c-1.549-2.057-3.606-3.756-4.761-6.058-1.155-2.301-1.009-5.604 1.218-6.896 1.657-.961 4.219-.739 4.982-2.497.31-.715.177-1.537.017-2.3-1.843-8.768-6.315-16.307-11.743-23.426 1.879-2.449 3.214-5.288 3.658-8.332 1.271-8.721-6.095-17.706-14.895-18.172 4.27-3.685 6-9.703 5.57-15.326-.429-5.624-2.759-10.93-5.494-15.862-2.676-4.827-5.808-9.464-9.845-13.227-7.238-6.749-17.049-10.305-26.899-11.259-8.764-.849-17.599.235-26.22 2.104-5.124.81-10.193 2.006-15.155 3.522-5.329 1.628-10.671 3.684-14.888 7.326s-7.166 9.15-6.493 14.681c-8.378-3.865-18.691-.6-25.49 5.637-4.372 4.011-7.767 9.48-7.897 15.411-.028 1.27.103 2.525.358 3.753-3.776.773-7.774.508-11.64.952-4.716.542-9.888 2.784-11.259 7.329-.684 2.268-.284 4.706.153 7.035 1.434 7.655 3.237 15.33 6.707 22.302 3.47 6.973 8.763 13.258 15.755 16.69 10.819 5.31 23.589 3.103 35.639 3.349 1.266.026 2.583.094 3.693.703 1.442.791 2.268 2.336 3.111 3.748 2.842 4.763 7.013 9.054 12.363 10.515 5.47 1.493 11.234-.148 16.884-.634 1.384-.119 2.819-.161 4.117.333 2.088.794 3.419 2.791 4.761 4.576 11.921 15.849 33.477 21.388 53.303 20.875 6.357-.164 13.135-1.013 17.98-5.131 6.115-5.199 7.237-15.307 2.41-21.721z"/><path d="M98.8 1032.1c.073-.189 30.086-60.764 30.086-60.764.405-5.839.517-13.262.272-20.984-8.183 13.564-16.116 27.42-26.468 39.312.963-27.139 5.508-53.7 10.548-80.182-7.916 9.153-19.207 40.893-34.832 113.45-3.857 17.912-17.869 55.06-24.189 72.258l26.91-5.511a426.857 426.857 0 0117.673-57.583z"/><path d="M96.672 1094.8c4.648-9.372 12.688-17.015 22.282-21.183-5.314-1.83-11.251-1.036-16.475 1.037s-9.872 5.343-14.465 8.583a51.207 51.207 0 015.315-18.476c-7.683 5.18-13.121 13.575-14.707 22.704a75.758 75.758 0 00-6.415-11.519l-.567 14.45 16.622 20.674c.185-4.744 3.267-9.047 7.254-11.624s8.778-3.632 13.508-4.045c-3.802-1.874-8.385-2.097-12.352-.601zM2145.5 1421c-7.277-9.023-19.037-14.237-30.61-13.57 4.577-3.256 8.807-7 12.595-11.147 1.288-1.411 2.584-3.001 2.756-4.904.255-2.834-2.021-5.206-4.2-7.037-18.795-15.794-44.156-23.514-68.563-20.869 1.677-4.632-.225-10.229-4.2-13.071-2.009-5.452-6.157-10.374-11.145-13.475-8.77-5.453-19.446-6.636-29.72-7.687-3.744-.383-7.583-.76-11.227.188-4.078 1.06-7.552 3.685-10.781 6.392a142.16 142.16 0 00-20.257 20.862c-2.667 3.379-5.236 6.996-6.257 11.178s-.178 9.073 3.098 11.864c2.906 2.475 7.995 4.549 6.778 8.167-.348 1.034-1.199 1.805-2.016 2.527l-31.68 27.988c-5.272 4.658-10.815 9.747-12.505 16.576-1.691 6.829 2.651 15.542 9.686 15.541a52.058 52.058 0 00-18.748 7.667c-1.749 1.157-3.479 2.478-4.495 4.312-1.015 1.831-1.219 3.998-1.214 6.092.033 15.355 10.677 29.559 24.593 36.049s30.425 5.946 44.908.844c14.482-5.102 27.144-14.424 38.308-24.966.948-.895 1.993-1.85 3.291-1.968 1.772-.161 3.231 1.261 4.594 2.405 5.892 4.947 14.781 5.981 21.651 2.518 6.871-3.463 11.327-11.223 10.855-18.902 12.728 6.913 28.039 8.423 42.204 5.406 14.166-3.017 27.205-10.357 38.082-19.922 4.377-3.849 8.653-8.498 9.401-14.278.686-5.32-1.812-10.602-5.182-14.78z"/><path d="M2073.2 1558.1c-1.812-3.388-3.849-6.719-4.813-10.437-1.052-4.061-.76-8.334-.453-12.518a3852.603 3852.603 0 016.184-74.432l-12.948-5.615-10.115 67.464c-.526-.188-1.115-.236-1.681-.267a760.168 760.168 0 01-36.869-2.902c-1.369-.141-2.807-.312-3.923-1.116-1.209-.871-1.826-2.327-2.385-3.708l-13.908-34.341-4.462.2a703.163 703.163 0 0012.844 48.955c.228.756.469 1.535.973 2.142 1.224 1.476 3.456 1.433 5.369 1.3a153.004 153.004 0 0142.087 2.932c-.24 1.871-.387 3.751-.189 5.622.257 2.429 1.079 4.757 1.894 7.059l28.344 80.01a47.135 47.135 0 0020.471-7.33l-18.272-44.852c-2.505-6.149-5.016-12.311-8.148-18.166z"/></g><g fill="#3f0021"><path d="M0 1111.1s42.955 20.229 54.756 64.059c11.8 43.83 64.48 225.58 64.48 225.58l-46.04 109.56 203.45 71.922 39.014 108.68 256.55 3.979L717.26 1800H0zM2471.7 1125.3c-21.585-18.817-50.571-27.737-79.205-27.979 5.177-8.635 4.941-20.226-.585-28.643s-16.067-13.242-26.049-11.925c15.587-11.213 16.809-35.574 6.675-51.883s-28.488-25.714-46.874-31.249c-22.754-6.851-48.953-8.494-68.896 4.429-26.903 17.432-32.72 53.646-36.013 85.533-18.951-4.966-40.763-2.463-55.463 10.489-14.699 12.952-19.363 37.463-7.133 52.768-48.413-2.595-99.99 25.52-114.33 71.833-5.579 18.016-4.943 39.022 6.362 54.119 9.1 12.152 23.973 18.969 38.979 21.261 15.007 2.292 57.748-.926 72.772-3.107 0 0 24.167 44.823 112.73 35.966 71.958-7.196 83.951-32.368 83.951-32.368s69.106 20.078 104.34-9.594c16.179-13.626 76.756-80.354 8.737-139.65z"/><path d="M2390.9 1250.9l-15.363 112.27c-1.534 11.207-3.163 22.71-8.669 32.591-5.262 9.444-13.659 16.672-21.882 23.691l-51.812 44.226c-9.642-69.187-8.379-139.9 4.26-208.6l-17.586 19.78-12.328 94.054c-.844 6.437-1.677 12.884-2.433 19.339-1.261-1.549-3.581-2.159-5.636-2.602a119.765 119.765 0 01-40.913-17.265c-2.142-1.423-4.32-3.009-5.473-5.307-1.076-2.145-1.122-4.641-1.146-7.04l-1.105-110.07-27.183-21.184a1156.578 1156.578 0 017.212 147.25c-.049 3.299-.077 6.752 1.429 9.687 1.627 3.169 4.781 5.222 7.84 7.046a207.696 207.696 0 0062.02 24.497l1.06-5.815c-.649 8.524-1.005 17.062-.837 25.613.495 25.221 5.418 50.112 9.535 75a1189.13 1189.13 0 0114.645 138.52l59.23-1.583c-21.567-47.203-37.296-97.014-47.066-147.98l68.381-66.43c5.518-5.36 11.154-10.884 14.411-17.852 2.886-6.173 3.714-13.077 4.503-19.845l18.568-159.09z"/><path d="M2676.4 1359.2l-1.663 77.952-234.14 135.54v61.046l-734.8 62.897s-12.774 1.992-33.727 16.406l-126.43 86.974h1304.4v-592.95z"/><path d="M1724.8 1694.8a90.741 90.741 0 00-9.577-24.925 73.039 73.039 0 0123.306 19.736c-.487-20.975-10.706-40.443-14.42-61.092 8.922 7.772 14.868 18.5 18.665 29.706s5.592 22.975 7.37 34.673c.97-13.004 2.045-26.399 7.939-38.031a297.893 297.893 0 003.11 33.471c1.153-8.717 5.172-17.03 11.287-23.349a238.874 238.874 0 00-2.248 38.153M1826.1 1661.2l-11.571-3.504c-.907-.275-1.857-.575-2.51-1.261-.518-.545-.79-1.272-1.048-1.978l-4.306-11.756a26.42 26.42 0 009.059-3.262c-3.58-1.286-8.625-1.816-12.205-3.101 0 0-24.303-30.502-36.232-42.325a136.659 136.659 0 0126.672 6.269c2.709.932 12.789 4.214 12.789 4.214s-2.262 5.155-3.604 7.686l6.534-3.303c.701-.354 2.405-1.314 2.405-1.314s1.628 1.448 2.337 2.147c8.424 8.316 14.486 18.672 20.447 28.899 1.601 2.745 3.25 6.004 2.063 8.952a9.137 9.137 0 005.392-.104 96.972 96.972 0 014.558 29.892 50.065 50.065 0 00-20.827-16.38"/><path d="M1838.3 1664c6.6 12.446 11.071 25.705 13.432 39.588.452 2.658 4.498 1.531 4.048-1.116-2.421-14.234-7.093-27.839-13.855-40.591-1.266-2.388-4.892-.269-3.625 2.119zM1843.8 1574.6c-2.637 3.8-5.206 14.022-6.213 18.537a34.883 34.883 0 014.359 3.978 16.13 16.13 0 01-6.175.591l-.72 13.891c-.119 2.301-.014 8.946-.014 8.946s3.258 1.991 5.56 2.062l-4.538 2.264a113.627 113.627 0 0012.447 31.31c4.376-6.866 8.469-22.717 8.469-22.717l1.681-7.038-4.905-4.187h5.803c3.597-15.888-2.835-37.712-15.754-47.637"/><path d="M1847.5 1614c-1.094 14.3-2.616 28.664-2.358 43.022.246 13.679 2.344 27.25 5.999 40.424.721 2.6 4.773 1.496 4.048-1.116-3.737-13.471-5.776-27.291-5.872-41.28-.095-13.701 1.337-27.403 2.381-41.051.206-2.693-3.993-2.68-4.198.001z"/><path d="M1854.6 1696.1c5.758-28.11 19.574-58.305 43.318-75.643 2.16-1.577.068-5.222-2.119-3.625-24.671 18.015-39.248 48.861-45.248 78.152-.54 2.637 3.506 3.765 4.049 1.116z"/><path d="M1903.6 1634.4c5.777-8.273 10.859-17.102 15.842-25.822-6.133-.623-12.266.208-18.151 2.02-.708 1.785-1.522 3.57-.63 5.355-.801-1.601-1.154-3.194-1.825-4.533-4.949 1.77-9.694 4.202-14.076 7.015-4.832 3.101-9.372 6.699-13.032 11.048a41.58 41.58 0 00-2.461 3.263c.933 1.866 2.473 3.732 3.406 5.599-1.942 0-3.884-.679-5.825-1.559-.902 1.701-1.717 3.445-2.368 5.249-2.867 7.953-5.688 20.044-5.389 28.452l.704 1.678c7.32-4.069 14.674-8.159 21.271-13.256.25-.193.487-.4.734-.596-.727-1.457-1.667-2.704-.731-4.575 0 2.146 1.462 2.464 2.892 2.823 6.436-5.437 11.971-11.724 16.969-18.461-2.099-.887-3.472-3.954-5.867-3.954 2.846 0 5.691-.639 8.537.254zM520.24 1161.9c30.224 4.101 59.192 17.055 82.398 36.849 7.074 6.034 14.206 14.722 11.549 23.632-1.792 6.011-7.47 9.826-12.088 14.071s-8.661 10.816-5.99 16.492c1.264 2.685 3.788 4.525 6.257 6.172 24.793 16.542 54.718 26.01 75.325 47.543 7.398 7.73 13.438 19.854 7.337 28.644-2.328 3.354-6.387 6.341-5.754 10.375.282 1.798 1.503 3.298 2.785 4.59 7.053 7.103 16.911 10.51 25.41 15.796 8.5 5.286 16.333 14.226 14.845 24.124-.743 4.94-3.704 9.224-6.636 13.269-9.639 13.296-19.997 26.295-32.9 36.453s-28.659 17.362-45.079 17.596c-25.408.362-47.755-15.364-70.94-25.765-2.435-1.093-5.007-2.151-7.671-1.992-3.462.207-6.429 2.405-9.31 4.337-9.712 6.513-21.532 10.929-33.047 8.887-11.772-2.088-21.276-10.417-31.605-16.439-2.53-1.475-5.226-2.849-8.146-3.079-4.695-.369-9.033 2.235-13.202 4.426-37.016 19.452-83.093 10.563-120.41-8.298-11.966-6.047-24.119-13.78-29.638-25.998-6.968-15.425.012-35.701 14.998-43.569 4.807-2.524 10.26-3.906 14.537-7.25 4.276-3.344 6.979-9.77 3.899-14.241-2.292-3.326-7.374-5.215-7.242-9.252.054-1.643 1.049-3.088 2.043-4.397 26.761-35.258 74.921-44.675 112.96-67.318 1.568-.933 3.255-2.068 3.683-3.842.766-3.175-2.755-5.499-5.379-7.444-11.304-8.377-11.459-26.29-3.851-38.125s20.707-18.847 33.55-24.593c12.482-5.585 25.567-10.528 39.229-11.1"/><path d="M422.93 1415.6c-1.748 16.995 14.31 76.848 17.269 78.751l50.167 32.272c15.138-5.425 26.714-5.994 42.572-8.658 9.299-1.562 19.418-2.997 26.028-9.722 4.169-4.241 6.313-10.021 8.247-15.644a529.548 529.548 0 0019.045-71.131l11.409 22.598c-5.174 18.694-10.349 37.387-15.522 56.081-1.846 6.669-3.77 13.503-7.863 19.083-9.342 12.733-26.782 15.454-42.024 19.588-4.445 1.206-9.018 2.719-12.287 5.963-2.528 2.507-4.05 5.828-5.496 9.081-15.701 35.299-36.691 134.85-47.046 172.07l-61.379-6.391c16.358-39.085 51.545-134.1 62.234-175.1.108-.414.224-.83.338-1.246l-36.206-24.654c-2.403-1.637-4.878-3.346-6.406-5.82-1.45-2.349-1.905-5.16-2.322-7.889a1827.266 1827.266 0 01-11.655-91.325c5.448 1.045 5.448 1.045 10.897 2.093z"/><path d="M705.91 1691.1c-18.297-8.855-41.544-6.343-57.528 6.217-1.059-13.596-12.758-25.026-26.112-27.794-13.353-2.768-27.568 2.192-37.914 11.077 2.762-15.064-6.862-30.645-20.447-37.718-13.584-7.073-30.102-6.697-44.727-2.153-14.626 4.544-27.735 12.896-40.447 21.438-4.555 3.061-9.609 8.892-6.175 13.173l-4.976-1.662c-2.13 30.788 17.771 60.098 44.095 76.205s58.038 20.953 88.889 21.752c29.894.775 60.153-1.99 88.521-11.451 9.436-3.147 18.808-7.133 26.285-13.693 7.476-6.561 12.874-16.073 12.514-26.013-.464-12.847-10.407-23.778-21.978-29.378zM314.45 1641.7c10.139-12.226 27.185-19.292 42.48-15.014 11.957 3.344 21.15 12.691 29.602 21.787-1.986-7.795 3.846-16.192 11.519-18.606s16.284.277 22.545 5.327 10.505 12.169 13.934 19.445c11.55 13.183 8.385 27.255 2.967 43.923-5.417 16.669-19.168 30.171-35.604 36.258-11.193 4.145-23.408 5.036-35.273 4.447-8.799-.437-17.534-1.821-26.053-4.067-10.263-2.706-20.695-6.826-27.954-14.636-8.411-9.049-11.479-21.927-11.8-34.277-.413-15.878 3.497-32.361 13.637-44.587z"/></g></svg>