<svg width="4000" height="1000" xmlns="http://www.w3.org/2000/svg" xmlns:svg="http://www.w3.org/2000/svg"><path xmlns="http://www.w3.org/2000/svg" d="m2687,271c32,36 78,61 108,62c23,0 55,-22 72,-43c-7,15 -16,27 -28,35c21,-4 36,-15 50,-29c-2,5 -7,11 -14,18c6,-2 12,-6 18,-11c-45,42 -68,44 -94,48l-22,4c-4,0 -10,-5 -10,-5c-46,2 -81,-7 -104,-39c-1,-3 0,-4 1,-6c1,-3 0,-6 -2,-9c1,-3 3,-4 5,-6l-3,-11c28,31 55,51 81,55c-28,-16 -49,-35 -58,-63zm-1491,-27c17,11 32,26 49,38s39,28 54,37c12,7 24,13 37,17c17,6 41,15 62,15c36,1 75,-4 112,-17c22,-7 76,-33 99,-43c19,-9 46,-21 55,-27c13,-8 22,-9 19,-19c-1,-4 -13,-1 -15,-2c-4,-1 -8,-2 -7,-3c1,-3 9,-1 23,-7c8,-4 20,-5 17,-15c-1,-7 -18,-7 -31,-4c-16,4 -38,3 -48,4c-11,0 -22,0 -16,8c3,4 28,17 27,19s-19,-3 -29,-3l-28,0l-12,3c-1,-1 1,-2 6,-6c8,-7 4,-11 -6,-12c-6,0 -21,3 -29,-6c0,-1 0,-2 -2,-2c-12,3 -36,6 -44,5c-3,0 -3,5 0,6c3,2 18,3 19,5c0,2 -15,8 -10,13c3,2 26,5 24,7c-3,2 -25,-1 -29,0c-2,1 -9,5 -15,4c-8,0 -23,-6 -32,-5c-10,1 -17,15 -17,20c-1,2 3,5 4,6c2,1 8,0 7,2c-2,4 -9,2 -12,3c-3,2 -8,11 -8,15c1,3 13,5 13,7s-13,2 -18,0c-6,-2 -16,-11 -21,-13c-3,-1 -10,4 -10,0c-1,-5 20,-6 28,-15c9,-9 20,-31 22,-41c2,-7 -1,-17 -5,-18c-3,-1 -15,6 -30,7c-20,2 -67,-4 -94,-2c-29,2 -74,5 -91,2c-15,-2 -38,3 -18,17zm1322,33c1,-2 1,-4 4,-4c10,0 26,-2 31,-1c9,3 18,4 22,10c5,5 4,17 5,25c1,14 -20,31 -32,30c-5,0 -8,-2 -8,-2l5,0c12,-1 32,-22 23,-33c-7,-8 -38,21 -47,24c-2,0 -4,-4 -5,-2c-2,3 -16,4 -19,1c0,-1 12,-3 10,-5c-2,-1 -14,1 -18,1l-5,-4c-3,-2 -9,-1 -14,-1c-6,0 -12,-4 -12,-4c-2,5 23,13 22,14c-2,2 -27,-8 -40,-14c-13,-5 -30,-9 -39,-14c-6,-4 -12,-10 -15,-15c-4,-6 -6,-14 -6,-19c0,-2 3,-5 6,-6l10,-1l16,2l6,1l2,5c0,3 2,14 0,14c-1,0 -14,-14 -15,-13c-1,2 7,13 11,17l8,9c1,1 4,1 5,-2l-3,-17l-2,-9c1,-2 3,-4 5,-4l7,-1l2,2l1,26l3,6l2,2l2,0c0,-1 -2,-2 -2,-7l1,-13l2,-13c0,-1 0,-3 3,-3c8,0 20,0 26,2l15,5l16,6c4,2 -1,9 -2,15l-1,17l2,0c1,-6 7,-19 12,-27zm6,39c4,-2 16,-19 17,-27l1,1l-1,7l2,0l3,-2l1,1c-4,6 -19,21 -22,21c-1,0 -2,0 -1,-1zm-10,0c5,-3 8,-8 8,-15l-7,6c-1,-1 5,-14 12,-20c2,-2 7,-1 7,1c3,10 -10,26 -15,28c-4,2 -5,0 -5,0zm7,-30c-3,4 -9,19 -9,22c1,1 -2,0 -2,-2c0,-4 7,-18 9,-21c1,-1 3,0 2,1zm-38,16l1,5l2,-1c0,-2 -2,-5 -3,-4zm14,-24c0,12 -2,10 -2,26l-2,0l0,-15c-1,-2 -6,-7 -7,-6l-1,14c-1,1 -2,0 -2,-1l-2,-8l0,-9l-3,-3l-1,13c0,2 -2,0 -2,-1l1,-13c0,-1 2,-4 4,-4s6,1 7,3l5,9c2,-1 2,-4 3,-5l2,0zm-51,19l2,4c2,1 4,0 3,-2c-1,-1 -4,-3 -5,-2zm105,-3l-2,4l1,0l3,-3c0,-1 -1,-2 -2,-1zm-87,-25l0,24c0,2 -4,2 -5,0c-1,-8 0,-16 3,-23c0,-1 2,-3 2,-1z" fill="#1860A5" id="svg_3"/></svg>