<svg width="4000" height="1000" xmlns="http://www.w3.org/2000/svg" xmlns:svg="http://www.w3.org/2000/svg"><path xmlns="http://www.w3.org/2000/svg" d="m3470,296c15,-3 31,-5 46,-6c23,0 45,-2 67,3c17,3 34,6 49,13c23,10 45,23 69,34c15,6 28,16 43,23c16,8 34,14 51,22c16,7 35,14 52,9c7,-2 14,-1 21,0c20,2 39,-1 58,-3c15,-1 27,12 42,11l32,1l0,84c-16,49 -56,84 -111,112l-171,-143s39,-18 40,-26c0,-2 -8,-9 -17,-12c-12,-4 -41,-10 -56,-10c-9,0 -24,-6 -26,-10c-2,-2 0,-4 3,-5c0,0 -13,-12 -22,-14c-9,-3 -25,-1 -31,-1c-3,0 -5,-3 -2,-4c3,-3 13,-4 20,-4c0,0 -26,-15 -41,-20c-29,-8 -58,-10 -88,-8c-4,1 -6,-3 -3,-6c7,-5 36,-9 47,-14c0,0 -11,-3 -15,-6l-8,-8c-9,-2 -35,-5 -45,-10l-4,-2zm-1705,-21c31,2 158,35 158,35c-18,2 -21,2 -20,12c1,9 14,12 16,16c-3,4 -1,8 0,10c-10,5 -40,18 -60,23c-11,2 -27,3 -34,2c-5,-1 -8,-7 -12,-10s-11,-4 -11,-6c1,-3 9,-7 15,-9l16,-4c4,-1 3,-9 -1,-10l-26,-1c-9,0 -19,2 -24,3c-1,-4 -4,-4 -5,-6c-1,-3 5,-7 0,-12c-6,-4 -10,-2 -15,-2c6,-6 23,-10 28,-12c5,-3 4,-9 -3,-11c-7,-3 -36,-5 -42,-7c3,-5 13,-12 20,-11z" fill="#155798" id="svg_7"/></svg>