<svg width="4000" height="1000" xmlns="http://www.w3.org/2000/svg" xmlns:svg="http://www.w3.org/2000/svg"><path xmlns="http://www.w3.org/2000/svg" d="m1740,213c11,1 556,40 576,44c10,1 19,5 29,4c14,-3 27,-9 41,-10c13,-1 25,3 38,3c12,-1 24,3 36,3c9,1 20,0 28,5c9,4 18,9 28,9c11,1 21,-3 32,-3c14,0 25,9 37,13c9,3 19,1 27,-3c11,-3 17,-14 28,-16c11,-3 21,4 32,2l30,-6c12,-1 23,-5 34,-4l24,4l32,0c15,1 29,5 44,5c12,0 25,-2 37,0l23,6c10,2 19,8 30,9c16,2 30,12 47,13c16,2 33,3 49,-1c4,-1 0,710 0,710l-3022,0l1146,0s-7,-784 0,-786c8,-2 16,-2 24,0c10,2 20,8 30,10l54,3c27,0 53,-5 80,-4l39,2c14,2 29,3 43,-3c11,-3 21,-9 32,-9c11,-1 22,2 32,7c15,6 32,3 47,-1c18,-3 35,-12 53,-12c17,-1 35,3 52,3c9,0 19,4 28,2c14,-2 28,-6 42,-7c13,-1 25,7 38,8z" fill="#3078BF" id="svg_2"/></svg>