<svg width="4000" height="1000" xmlns="http://www.w3.org/2000/svg" xmlns:svg="http://www.w3.org/2000/svg"><path xmlns="http://www.w3.org/2000/svg" d="m651,500c3,-5 8,-9 14,-11c7,-2 15,0 23,0c32,2 64,9 96,2c11,-2 20,-9 30,-11c16,-3 33,-2 50,-4c15,-2 29,7 44,2c14,-6 29,-6 44,-6c8,0 16,3 24,4c8,-1 16,-4 24,-4c13,0 25,3 38,2c35,-2 71,0 106,2c19,1 38,-5 56,1c15,5 31,2 46,2l35,2c10,2 21,-2 31,-2c19,-1 38,-5 57,-8c7,-1 13,2 20,4c7,3 14,3 22,5l20,8l18,2c13,1 25,8 39,7c17,-1 34,-2 51,0c14,2 27,-5 41,-6c12,0 23,-6 34,-8c14,-3 26,5 40,4c20,-1 39,-10 56,-21c11,-6 24,-4 36,-4c25,2 49,-3 74,-3c14,1 26,-7 40,-8l20,-5c12,0 25,5 36,-2c7,-5 16,-8 26,-7c7,1 13,6 19,10c11,5 23,6 35,7c10,1 19,6 29,7c11,2 22,0 33,2c8,1 15,5 23,6c9,2 18,1 28,3l20,5c21,3 42,0 63,3c10,0 19,5 28,6c9,2 19,2 28,2c11,-1 20,5 30,5c17,0 34,6 51,8c12,2 25,0 37,0c31,7 62,0 92,-5c10,-2 20,1 30,2c21,2 41,-5 62,-4c23,-2 47,2 69,-5c26,-7 52,-13 79,-16c19,-4 38,-3 56,-9c18,-4 36,-9 54,-9c10,-1 18,-6 28,-7c8,0 16,1 23,-3c10,-5 22,-4 33,-4c10,0 20,0 30,3c8,3 16,-2 24,-3c18,-3 36,0 54,-1c8,-3 17,-4 26,-6c16,-6 32,3 48,1c15,-1 29,-5 44,-4c12,1 19,-10 30,-13c9,-1 17,2 26,1c13,-2 26,5 39,3c8,-1 14,-6 22,-9c6,-1 13,2 19,3c15,4 31,1 46,5c14,3 29,-2 43,2c9,3 17,-4 25,-6c11,-4 22,-11 34,-11c20,-1 40,2 60,4c14,0 26,-7 38,-10l54,-5c11,0 20,-7 31,-8c14,1 27,10 41,11c13,-3 26,-8 40,-6c5,1 7,7 13,9c5,2 11,2 16,6c11,8 23,15 34,24c5,5 10,9 16,12c6,0 12,-2 19,-1l24,6c19,6 34,22 54,23c8,1 16,4 23,8c16,9 34,13 48,24c16,6 32,14 43,27c6,7 16,7 24,10c8,5 13,12 20,17l0,443l-3349,0l0,-500z" fill="#042B50" id="svg_9"/></svg>