<svg width="4000" height="1000" xmlns="http://www.w3.org/2000/svg" xmlns:svg="http://www.w3.org/2000/svg"><path xmlns="http://www.w3.org/2000/svg" d="m1982,177c15,-3 31,0 47,4s29,14 45,19l43,16c11,4 22,11 35,12c20,2 38,-7 56,-11c14,-2 28,-4 40,3c17,9 35,14 52,23c20,9 38,23 59,32c36,17 73,31 111,46c32,14 66,24 100,33c19,4 37,10 54,18c24,11 52,13 78,12c21,-3 41,-7 61,-12c15,-4 30,-2 44,-9c27,-16 55,-32 87,-37c20,-4 41,-5 61,-11c17,-4 32,-10 48,-18c21,-10 44,-14 67,-14c21,1 41,6 62,8c15,1 29,-6 42,-13c15,-7 30,-15 46,-19c8,-2 15,0 22,1c17,5 34,6 50,12c25,9 52,10 77,17c19,4 37,12 56,14c19,3 37,11 56,14c18,3 35,9 52,10c11,1 22,1 32,4c15,5 31,5 46,10c20,8 40,12 60,20c21,9 42,18 65,21c34,5 67,-4 101,-9c25,-3 50,-4 75,-4c29,1 59,6 88,8l0,623l-4000,0l0,-638c22,-11 45,-22 68,-30c17,-5 35,-8 53,-12c33,-8 68,-14 102,-23l92,-24c25,-9 52,-16 79,-17l24,-1c25,-2 49,4 74,3c13,-1 25,-6 38,-4c10,2 18,10 28,12c19,5 39,2 58,-1l44,-9c16,-4 32,-12 48,-17c27,-11 54,-18 82,-25c11,-4 22,-4 33,-2c15,3 29,5 43,9c16,4 34,6 51,4c15,-1 29,-8 44,-10c18,-2 36,5 54,8c12,3 23,-3 35,-4c10,-2 20,1 30,2c27,3 52,-10 78,-9c7,-1 15,1 22,4c12,8 25,15 36,24c29,21 61,37 91,55c37,19 79,30 121,32c12,0 25,2 37,0c13,-1 24,-6 36,-10l46,-16l43,-19c37,-13 72,-31 106,-50c26,-12 54,-19 82,-24c27,-5 55,0 82,1c43,0 81,-23 122,-32z" fill="#1860A5" id="svg_4"/></svg>

