<svg width="4000" height="1000" xmlns="http://www.w3.org/2000/svg" xmlns:svg="http://www.w3.org/2000/svg"><path xmlns="http://www.w3.org/2000/svg" d="m396,354c9,0 18,-3 27,-5c7,-1 14,0 20,2c17,3 34,-1 51,2c9,2 19,2 29,2c13,1 26,-3 39,-1c11,2 22,1 33,1c16,-2 33,1 49,-1c22,-2 44,3 66,2c16,0 31,4 46,5c9,0 18,4 28,4c6,1 12,0 18,-1c12,-1 22,-6 34,-7l33,-2c10,-1 19,4 29,4c9,1 18,1 27,4c14,3 28,3 42,3c19,1 39,-2 59,2c15,3 30,6 46,6c17,-1 35,0 52,-4c23,-5 47,-5 70,-3c17,2 32,11 48,15c27,7 56,10 84,10c16,-1 31,6 45,13c10,4 20,4 30,7c6,2 10,9 16,12c7,2 15,-2 22,-5c12,-4 25,-2 37,-5c23,-6 47,-1 70,-4c15,-3 29,9 43,3c13,-5 28,-10 43,-7s29,6 44,7c9,0 17,-5 26,-5c16,0 33,2 49,-1c10,-2 18,-7 28,-8c8,-1 17,3 25,1c31,-11 63,-4 94,-10c11,-2 23,-3 34,-2c14,0 28,-5 42,-4c11,1 20,7 31,9c9,2 18,-1 27,-3c13,-2 26,1 38,-2l18,-6c7,0 14,4 21,4c13,0 26,3 40,4c11,-1 20,8 31,8s22,0 33,-3s22,-8 33,-10l28,-5c4,-1 8,3 11,5c13,1 27,6 39,1c7,-2 14,1 21,3c12,4 24,6 37,9c11,3 22,1 34,3c7,1 15,4 23,4l35,0c9,1 17,5 26,6l29,4c13,3 27,1 41,2c10,0 19,5 28,6l36,3c14,3 28,2 42,2c12,0 24,2 35,0c12,-1 23,-4 33,-7c10,-4 20,-3 30,-3c11,0 21,-5 32,-6c13,0 27,-1 40,-4c7,-2 14,-7 22,-7c8,-1 17,-1 25,-4c13,-4 26,-2 39,-3l23,1c12,2 24,1 35,5c9,3 19,5 29,5c8,0 16,-2 24,-4c11,-2 22,1 32,0l27,-1c11,0 22,-3 33,-1l37,3c11,0 22,6 33,5l21,1c10,3 20,-2 30,-3c16,-2 32,-6 48,-1c16,6 34,1 51,3l55,-7c8,-1 16,3 24,3c9,0 17,-8 26,-8s17,6 24,11c12,9 26,17 42,18c15,2 31,3 46,1c25,-3 50,-7 74,-13c13,-2 25,-10 39,-8c18,2 37,4 55,3c17,-1 34,2 51,0c12,-2 24,0 36,1c7,0 12,-6 19,-8c8,0 16,2 25,1c12,-3 23,3 35,3c13,2 25,-5 37,-5c10,-2 18,8 29,7c9,-1 18,-3 28,-3l0,597l-4000,0l0,-609l36,-5c11,-1 23,1 34,3c17,-3 34,-9 52,-8c15,1 31,-2 46,-3c9,-1 15,-7 24,-8c13,0 26,1 39,-4c5,-1 10,-5 16,-5c20,1 39,-1 59,-1c16,1 30,-6 46,-6l24,-2c7,-1 13,2 20,2z" fill="#073866" id="svg_8"/></svg>