<svg width="4000" height="1000" xmlns="http://www.w3.org/2000/svg" xmlns:svg="http://www.w3.org/2000/svg"><path xmlns="http://www.w3.org/2000/svg" d="m2550,660c-30,10 -61,4 -91,1c-9,0 -11,-10 -13,-17c-30,-4 -65,5 -92,-14c-5,-6 -11,-14 -6,-21c7,-13 23,-15 36,-17l70,-10c32,-4 64,0 97,1c36,-6 73,0 110,-6c20,-2 40,-9 61,-9c31,1 61,3 92,2c92,-6 184,7 276,6c24,-4 39,16 59,24c32,9 65,13 98,17c18,1 34,10 48,20c8,4 11,16 5,23c-6,11 -19,12 -30,16c-5,22 -23,44 -47,47c-31,4 -63,0 -95,2c-27,2 -55,0 -82,1s-52,-8 -78,-13c-27,-7 -56,-5 -84,-9c-35,-4 -70,-4 -105,-9l-109,-13c-13,-2 -27,2 -40,1c-9,-1 -14,-11 -24,-10c-19,-3 -37,-8 -55,-13l-1,0z" fill="#3078BF" id="svg_10"/></svg>