<svg width="4000" height="1000" xmlns="http://www.w3.org/2000/svg" xmlns:svg="http://www.w3.org/2000/svg"><path xmlns="http://www.w3.org/2000/svg" d="m3954,700l46,14l0,286l-4000,0l0,-520l22,-1c12,0 24,-4 36,-5c11,-1 21,-4 31,-7c16,-5 33,-2 49,-4c15,0 30,-7 45,-2c17,5 33,16 43,31c4,6 11,7 18,8c15,2 29,1 44,0s27,12 42,11c21,1 43,-8 64,-1c15,4 25,15 37,23c7,4 11,10 17,15c11,4 24,3 35,7c10,3 20,7 30,8c13,3 25,0 37,1c15,1 31,-5 45,1c16,6 33,5 49,7c12,1 22,7 32,12c6,3 10,9 16,11l22,0c7,1 13,6 20,6c13,1 25,1 37,6c11,3 20,9 30,13c11,3 23,4 34,9c8,4 14,11 21,15c15,5 31,7 45,15c10,6 21,6 31,10c12,4 24,4 36,4c3,-5 5,-10 9,-14c4,-3 10,-5 15,-7c6,-3 11,-7 17,-9c8,-2 18,-1 26,-4c11,-2 23,-4 34,-2c8,2 14,8 22,10c7,2 15,1 23,1c12,-1 24,0 36,-4c19,-6 40,-9 59,-3c11,5 23,11 31,21l8,8l19,-1c8,-3 16,-9 25,-8c16,3 26,16 40,22c12,-1 25,-5 36,-1c10,2 16,10 23,15c11,4 23,2 35,6l24,3c11,0 21,5 32,9c8,-7 17,-12 28,-13c11,-2 23,0 34,2c5,-2 10,-6 14,-9c4,-7 6,-15 12,-19c11,-9 26,-8 40,-6c20,4 41,10 58,22c8,4 13,11 16,19l30,0c4,1 6,-2 9,-4c9,-8 23,-10 34,-6c14,5 28,2 42,6c8,2 14,-4 20,-6c18,-6 37,-3 54,0c7,2 13,-3 20,-4c14,-2 27,1 41,3c9,1 18,2 27,5c5,2 9,7 14,9l19,4c9,3 17,8 25,13c6,4 13,-1 20,-2c23,-2 47,6 66,20c2,2 5,5 9,4l24,-3c6,0 10,-6 16,-8c12,-7 27,-5 41,-5c11,2 23,1 34,2c11,2 20,9 27,16c14,-2 27,-4 40,-1c27,3 47,22 72,28l33,9c3,1 8,2 11,-1c8,-6 14,-13 23,-18c6,-3 14,-3 22,-5c7,-5 12,-12 19,-15c23,-11 52,-6 71,11c11,7 16,19 28,24s25,9 38,12c8,2 14,-5 22,-6l27,-4c29,0 54,17 82,21c22,3 44,-6 66,-5c25,0 49,3 74,2c41,-2 80,11 119,22c21,7 43,12 64,20c6,3 12,5 19,6l72,3c10,1 18,-7 27,-9c10,-4 22,-2 31,-9l27,-17c10,-7 22,-14 35,-13c11,0 21,7 32,8c13,0 26,-2 38,-7c7,-4 16,-3 23,-6l4,-13l-15,-1c-1,5 -3,8 -7,10l0,-11c-5,2 -9,5 -11,11l-9,-2c6,-5 6,-14 9,-20c4,-8 14,-2 20,-5c10,-5 20,-6 30,-9c-1,-3 -3,-6 -6,-8l12,-1l-5,-7l0,-5c5,0 10,1 15,-2c4,-5 5,-12 10,-17l-6,-8l-11,4c-4,-2 -8,-6 -11,-2c-3,6 -3,12 -4,17c-4,2 -9,3 -14,2c5,-2 11,-4 13,-10l0,-11c-4,4 -7,9 -12,12l-13,-8l-14,5c5,-6 13,-7 19,-12l-3,-7l-4,6c-5,-3 -13,-7 -11,-15c6,-6 15,-3 23,-4l-1,-5l-9,-4l1,-6c13,-1 26,-4 38,2l1,-12l-22,4c9,-15 30,-3 39,-17c-5,-5 -10,-10 -17,-12l2,-9l-7,1l3,-6l-6,-2c12,-5 22,5 34,3c4,-5 -4,-5 -7,-6l2,-19c-4,6 -11,6 -17,6l-3,11c-11,1 -22,1 -31,-5l2,-9l10,-1c3,-4 9,-7 8,-13c-4,1 -8,4 -11,7c-6,-4 -4,-10 -2,-16l15,2l5,-6c-3,-3 -6,-6 -6,-11c5,-1 11,-1 17,2c8,4 17,0 26,0l-2,-15l5,-13c-6,-6 -12,-11 -17,-18c7,-2 14,-5 18,-12l-9,1c2,-8 4,-17 0,-24c6,4 15,9 20,1l-7,-10l8,3l8,-8l12,-1l2,9l-6,9c4,-1 8,0 12,1c-5,5 -14,11 -8,18l-7,10l11,8c-7,1 -13,-4 -20,-2c3,9 12,13 19,18c3,2 1,7 2,11l22,2l0,5c-4,2 -8,5 -10,9l-8,-8l1,15l-5,-7c-5,-1 -13,-2 -13,5c1,10 10,16 13,26l-8,4c5,8 11,15 19,20l-2,8l-7,-3c3,7 10,11 16,14l0,8l7,5c-1,5 -2,10 -1,14c5,4 11,6 17,7l3,8l7,2l-8,5c5,5 10,10 13,16c0,5 -1,10 -6,11l-20,0c-11,-3 -18,-14 -24,-23c0,5 -1,10 3,14l17,23c4,6 12,5 18,8l8,11l2,-14c5,3 11,8 18,7c8,-4 15,-9 22,-15c-11,0 -19,-8 -27,-14l1,-1l1,-2l1,0c6,3 12,6 19,7c-4,-6 -7,-13 -13,-17c-4,-4 -8,-8 -8,-14c9,1 15,9 23,13c2,-3 5,-5 5,-8c-1,-4 -4,-6 -6,-9c-4,-5 -2,-12 -3,-18c8,2 16,3 24,1l-1,-7l-12,-9l15,0l15,-5l3,-6l18,6c7,2 12,7 18,10l14,0s83,4 144,5c23,0 59,7 70,11c16,8 44,11 64,16l20,5z" fill="#021A32" id="svg_14"/></svg>