<svg width="4000" height="1000" xmlns="http://www.w3.org/2000/svg" xmlns:svg="http://www.w3.org/2000/svg"><path xmlns="http://www.w3.org/2000/svg" d="m4000,1000l-4000,0l0,-726l12,-2l-6,10c9,-3 14,-11 19,-18c2,4 6,8 3,12c-3,5 -10,9 -10,16l-9,3c4,2 9,8 14,6l6,-12c5,3 10,4 15,1c-1,-4 -3,-9 -7,-12l0,-10c8,-2 16,1 23,1l2,-13c-2,3 -3,6 -6,7l-10,-3c-2,-8 5,-14 12,-14c3,-5 6,-12 13,-11l-5,-3c5,-3 10,-5 16,-6l1,14l7,2l-1,9l7,0l-7,9l8,7c-1,4 -4,7 -7,10l12,2l-1,6c-8,5 -16,8 -25,9c9,3 18,-2 28,-4c-1,4 0,10 -5,13c-6,7 -15,10 -23,12c7,0 15,1 22,4c6,1 12,-2 17,0l-1,9l10,-16l3,3l-1,-9c5,3 11,3 16,0c-5,-1 -10,-4 -9,-10l13,-1l-6,-7c6,-1 11,-2 16,-5l1,15l4,-2l0,-6l12,1c4,-4 5,-8 8,-12l-7,-8c6,-3 4,-10 4,-16l8,1l-3,-5l13,-4c2,8 0,16 -2,23l-4,3c5,6 10,13 19,13c-4,2 -7,5 -11,6l-6,0l5,12c1,10 7,19 11,28c2,6 6,8 10,12l8,-4c-2,-11 3,-21 8,-30c9,2 13,11 20,16c1,7 -7,5 -11,4l10,9l5,-7c2,6 0,11 -2,16l8,0c2,5 6,9 11,12l0,5l-5,1l1,3l12,0l0,6c7,0 12,-4 17,-8c-8,-1 -14,-3 -21,-6l-1,-5l17,0c-7,-3 -16,-5 -19,-14c6,0 10,3 15,5l10,0l6,6l1,-14c-6,2 -12,3 -19,3c0,-4 1,-7 -1,-11c-4,-5 -11,-9 -13,-16l14,7l0,-3l9,2l-9,-13l13,-4l-10,-15l11,5c-3,-5 -3,-11 -3,-17l18,5l-7,8l15,-1l-2,10l-7,0l6,7l12,-6l-11,16l11,-3c-4,5 -11,7 -17,10c1,5 8,6 12,9c4,-3 8,-5 13,-6c0,4 1,9 -2,13l-13,8c-4,-1 -7,-2 -11,-1l10,7l-15,-5l0,1l1,3l0,1c10,5 20,1 29,-3c-2,6 -5,12 -10,15c7,-2 13,-6 21,-3c-5,5 -11,6 -17,5l0,5l9,-3l-8,11l14,-4c-2,2 -3,5 -6,6c-5,2 -10,2 -12,8l12,-3l12,9l-2,-18l5,-2l1,6l1,-12l4,8l8,-2c-5,4 -9,9 -7,15l6,-4l1,5c3,-2 5,-6 8,-4c8,2 14,8 22,8l12,3l-13,-15l4,0l-7,-8l5,-6l-6,-4l0,-4l11,6l-4,-12l14,6c-1,-5 -3,-10 -3,-16l9,-10l2,10l8,-4c-5,4 -9,9 -8,16l8,-5l0,4l9,-1c-4,6 -6,14 -10,21l19,-5c-4,5 -9,9 -11,16l14,-7c-2,5 -4,10 -8,14l1,8l-8,7l15,1c-6,6 -14,12 -16,21c5,-1 11,-2 14,-7c4,-4 9,-6 14,-7l5,6l5,-4l0,9c0,5 -2,12 5,14c4,4 9,2 12,-1l-8,-10c1,-4 0,-9 4,-11l19,2l1,-13l-4,9l-12,-4c1,-3 0,-8 4,-9c7,-4 14,-11 18,-19c4,0 8,-1 11,-3c2,6 3,12 9,15l-1,8l6,-2c-1,4 -3,7 -6,11c5,2 9,6 15,7l12,2c-9,-6 -12,-16 -17,-24l4,-5l-7,-4l9,-5l3,-6l11,7l-2,-16l8,-11l3,9l6,-3l-8,13l15,5l-1,15c10,-2 19,-9 26,-17l-4,-2l-4,-14l2,-8l11,2l-1,6l7,-2c-1,6 -3,12 2,17c-5,5 -4,12 -3,19l17,-1l0,6l9,3l-10,3l12,6c-7,9 -16,2 -23,-3l-2,11l13,-2c-2,5 -5,9 -9,13c3,5 10,3 15,4l1,-8c7,-4 14,-8 18,-16c3,-6 10,-6 15,-7c1,6 3,12 9,15l-1,7l6,1l-7,9l8,6l-3,10l10,2l-8,11l9,0l0,8l-14,12c13,3 26,4 39,5l-7,-11l11,5l5,-4c-4,-2 -7,-5 -8,-9l13,-2l-7,-6l17,-4c0,5 0,10 -3,15l9,-3l-8,12c7,3 15,3 22,0l-9,-11l8,3l-2,-14l17,4l-8,6l11,1l-3,9c1,3 2,7 1,10c0,4 -3,9 0,13c6,7 15,10 19,17c6,9 6,19 8,28c4,8 14,10 21,11l39,11c4,0 7,2 9,3l-8,-16l13,7c-4,-8 -9,-17 -9,-26l13,1l-5,-8l13,2c-4,-6 -15,-4 -17,-13l14,4c-6,-6 -11,-12 -15,-19c7,-2 13,3 20,4c-5,-3 -9,-8 -11,-15l20,6l-2,7c3,-6 8,-10 13,-14l-17,4c4,-2 8,-4 10,-8l-12,1l-1,-4l-8,0c-3,-5 -5,-11 -4,-17l14,8l12,-9c-6,-3 -13,-6 -18,-11l11,3l-11,-16l11,6l7,-5c-5,-2 -10,-6 -9,-12l16,0l-9,-8c6,-1 14,1 18,-5c1,6 2,13 -2,18l12,-5l-11,15l13,4l-9,12l9,2c5,-3 10,-6 15,-7c-2,7 -9,10 -13,16l-4,11c-6,1 -12,-1 -17,-3l0,13c7,-4 16,-3 23,-7c3,-3 6,-3 10,-2c-5,7 -13,10 -20,13l12,0c4,0 4,5 6,7l4,-5l7,-1l0,-8l11,-1c-3,-4 -5,-9 -5,-14l14,2l0,-5l-8,0l0,-5c6,-5 11,-12 19,-17l7,12c5,7 -1,19 9,23c3,-3 9,-6 10,-11l9,-18c4,-7 5,-16 8,-24l-9,2l-8,-7l10,-1l10,-14l-7,2c3,-6 0,-11 -1,-17l1,-9l12,3l-1,7l8,-3l-3,12l5,5l-5,7l1,13l18,-2l-2,7l9,3l1,3l-6,0l-2,2l11,7l-12,3c-3,-3 -6,-6 -10,-7l-4,10l14,-2c-2,5 -6,9 -9,13c3,5 11,4 16,5l-10,4l18,2l-4,6l11,-1l0,-7l15,1c1,-7 2,-13 -3,-19l4,-4l-2,-9l6,0c1,-6 6,-7 11,-8c2,7 1,13 -2,19l3,3l-7,1c4,7 10,12 18,14l-16,5c3,5 5,11 6,17c4,12 12,22 19,32c3,7 10,4 15,5c1,-4 4,-7 8,-9l12,9l7,-4l-9,-2l-6,-15c8,3 17,7 26,8l13,-5l0,-5c-6,2 -13,7 -20,6c4,-2 8,-5 13,-6l-1,-1l-1,-3l-1,-1c-4,1 -8,2 -10,6l-5,-5l0,-1l3,-2l1,-1l-14,-1l-5,-9l1,-12l16,9c6,-2 10,-6 15,-10l1,-2c-9,-3 -17,-6 -23,-13l15,4c-5,-7 -11,-13 -15,-21l16,8l8,-9l-8,-1c-4,-3 -3,-8 -4,-13l20,2c-2,-5 -7,-8 -12,-11c7,-1 14,-3 21,-2l3,-6c2,8 4,17 -1,24l14,-7c-3,10 -13,15 -14,25l4,-3l13,2l-11,17l12,2l16,-9c2,5 6,8 11,10l0,4l6,-1c0,6 -1,12 4,16l-6,7l1,13l17,-1l0,6l10,4l0,-9c-8,-4 -17,-8 -20,-16l5,-2l12,7c7,3 15,2 22,6l-10,-12c1,-6 -4,-9 -7,-12l6,-2c-3,-4 -6,-7 -7,-12l12,7l-3,-12c4,1 9,3 13,6c-1,-5 -3,-11 -2,-16l8,-8l2,7l6,-1c-3,3 -6,8 -6,13l14,1c-1,6 -1,12 -6,16l1,2l-5,5c7,-4 14,-8 22,-10c-3,6 -10,10 -11,17l13,-7l-7,14l1,8l-8,7l15,1c-6,6 -13,12 -16,20l25,-5l-6,9c8,-2 13,-10 18,-16l3,10l-11,16l-8,3l10,10c5,-4 7,-10 10,-16l8,4l6,-4l-8,-10l2,-10l8,-1l0,11l3,-9l10,1l1,-13c-2,3 -3,6 -6,7l-10,-3c0,-5 1,-9 6,-10c6,-3 10,-9 14,-14c2,-6 9,-6 13,-8l3,12l7,3l-3,8l7,0l-6,9l8,6l-6,9l10,2c6,10 13,20 17,31c1,6 7,6 12,7l-8,-13l11,5l0,-2l1,0c-4,-5 -5,-11 -4,-17l12,6c-5,-7 -13,-12 -14,-21l1,-1l2,-1l1,0l16,11l7,-2c-7,-6 -10,-15 -16,-21c-5,-5 -5,-12 -6,-18c5,5 11,10 19,10l1,-10c-8,-4 -16,-8 -20,-16l1,-1l3,0l1,-1l12,7c7,3 15,2 22,6l-10,-12c1,-6 -4,-8 -7,-11l5,-3c-2,-4 -5,-7 -6,-12l12,7l-3,-12c4,1 9,3 13,6l-2,-12c-2,-6 4,-9 7,-12l3,7l6,-1c-3,3 -6,8 -6,13l14,1c-1,6 -1,12 -6,16l1,2l-5,5c7,-4 14,-8 22,-10c-3,6 -10,10 -11,17l13,-7l-7,14l1,8l-8,7l15,1c-6,6 -13,12 -16,20l25,-5l-6,9c8,-2 13,-10 18,-16l3,10l-11,16l-8,3l10,10c5,-4 7,-10 10,-16l8,4l6,-4l-8,-10c0,-5 2,-9 4,-12l7,3l-1,9l3,-9l10,1l1,-13c-2,3 -3,6 -6,7l-10,-3c0,-5 1,-9 6,-10c6,-3 10,-9 14,-14c2,-6 9,-6 13,-8l3,12l7,3l-3,8l7,0l-6,9l7,6l-4,11l10,0c-1,3 -3,6 -6,8c-6,5 -13,6 -20,7c9,3 18,-2 27,-4c-1,6 -3,13 -9,16c-5,5 -12,5 -18,7l21,3l17,1l-5,14l-7,0l4,9l13,0l-9,0l6,-14l12,5l9,-6l-16,-9l8,0l-7,-12l10,5l8,-6l-8,0l-3,-8l12,0l-5,-7c6,0 11,-2 16,-5l-1,15l7,-2l-8,12l10,2l-4,11l6,2l0,-1l2,-1l1,0l-3,-9l8,-4l-6,-10l7,2l-2,-12l15,2l-6,6l12,1c0,4 -3,7 -7,9l5,3l10,-3l-7,8l5,4l-13,8l9,4l11,-3l5,9l5,-1c-4,-6 -6,-12 -8,-18c12,0 23,-2 35,-4c-11,-1 -25,-8 -24,-21c8,2 17,7 25,2c-10,1 -20,-4 -25,-12l10,-1l-4,-11l7,-5c-3,-3 -8,-8 -2,-11l1,-4c5,-3 7,-9 9,-14l1,0l2,1l1,0c8,2 11,11 17,15c3,3 10,6 9,12l-9,5c-3,-2 -4,-6 -6,-9l2,13l9,0l3,8l-1,-9l10,0c1,7 -3,14 -7,20c5,1 10,2 15,1c2,4 2,10 7,10c3,-1 6,-4 8,-7l-6,-2l-9,-17c-1,-3 1,-5 2,-8c5,6 9,12 17,15l-6,-9l23,5c0,-9 -9,-13 -14,-19c5,0 10,-2 15,-1l-8,-6l1,-9c-4,-4 -6,-8 -8,-12l13,6c-1,-7 -8,-10 -10,-16c7,2 15,5 21,9c-5,-5 -9,-13 -9,-21l13,-2c-1,-5 -3,-9 -7,-13l6,2l4,-8l1,9l2,-3l4,2l-2,16l10,-3l0,9c5,-2 9,-6 11,-11c7,3 13,7 19,12c5,-8 16,-8 19,-16l-15,-5c-5,-2 -10,-7 -14,-12l17,6c-3,-10 -12,-16 -17,-25c8,2 14,7 20,11l3,-6c-1,-5 -4,-9 -7,-13c1,-4 1,-7 -1,-11c8,3 16,3 25,2c-3,-6 -10,-9 -16,-13c6,-1 14,2 18,-3l9,3l2,-10c4,5 3,12 4,18c0,5 -4,9 -6,13l19,-10c-3,10 -11,17 -17,24l10,5l11,0c-4,8 -10,15 -15,22c6,0 11,0 16,3c6,-6 13,-10 21,-12c-1,3 -1,8 -4,11c-7,5 -14,10 -19,17l1,14c-10,2 -21,1 -30,-4l0,20l11,-2l-5,-6l21,3l14,-10l8,3l-8,10c-7,3 -15,4 -21,10c9,-1 19,-2 27,2l-1,5c-8,3 -16,5 -24,10l-8,-2c4,5 8,12 15,13l20,0c-9,5 -21,3 -29,11l22,8l-17,1l1,7l-7,-7c1,5 4,9 7,11l-1,5c-5,-3 -12,-6 -18,-3l7,6c8,6 18,2 26,5l5,-9l10,0l-5,-8l21,-1l-10,-6c7,-1 16,-1 22,-8l-10,-4l-7,-10l-11,-4l1,-4l11,-6l-9,-2l1,-5l10,0l-3,-9l22,2l2,-16l-7,-9l7,-4l-3,-15l10,2l-3,-7l16,-4l-2,10l4,0c-3,6 -7,14 -2,21l-10,-2l13,16l12,2l-11,7l-10,0l7,15l-3,4l10,13l-5,1c7,4 10,13 13,20c5,4 10,8 11,14c7,2 13,4 20,4l-9,-4c-2,-8 -4,-16 -2,-24c0,-8 7,-14 11,-22c9,6 16,15 24,22l-8,6l-7,-5c3,5 7,9 12,12l5,-7c5,6 1,13 -2,18l12,2l1,10l10,0l0,8l-7,5l14,1c2,1 3,4 4,6c8,2 14,-3 18,-9c-9,-2 -20,-2 -25,-11c6,-3 14,-2 21,-2c-8,-4 -17,-6 -22,-14l4,-4c6,5 12,9 20,8c5,0 8,6 13,4l1,-15c-7,4 -15,4 -23,4l0,-12c-6,-7 -16,-11 -18,-21l13,6c4,4 10,1 16,1l-11,-15l16,-5c-5,-6 -10,-11 -14,-18l15,7c-6,-7 -5,-16 -2,-24l2,7c7,-1 13,0 20,1l-11,10l17,0c0,3 2,7 -1,9c-2,3 -6,2 -10,3l9,8l14,-8c-3,7 -9,12 -12,20l12,-4c-5,7 -14,10 -22,13l15,11l15,-9l2,6l16,-9c5,-6 10,-14 13,-22c-5,5 -9,11 -16,13c-6,1 -14,1 -17,-5l8,-10l-2,-5c5,-4 9,-8 15,-10c0,-5 1,-9 3,-13c2,-5 7,-7 10,-11l-4,-1l-1,-2l11,-12l-4,-6c3,-5 9,-11 7,-18l-8,1l-3,5l1,-8l-5,3l-6,-9l17,1l-3,-7c5,-3 9,-8 13,-13l-11,2l5,-5l-6,-6l3,-3c-4,-6 -3,-13 -1,-20c6,0 11,4 17,4l-4,5l2,4l9,-4l0,13l-1,1l-3,1l-1,1l12,6l-11,10c3,6 3,12 2,18c9,1 18,-2 26,-1c-2,3 -3,7 -1,10l9,-1l3,7l-10,0l-2,3l13,5l1,4l-16,7l-4,9c-2,3 -6,4 -10,5c5,10 17,6 25,11l-13,0l0,6c8,-1 17,-1 25,1l-7,7l14,3l-1,7l-10,0c3,5 8,8 13,11l-10,-4l-8,5l-7,-6c0,6 3,10 6,14c-6,-2 -8,-8 -10,-14l-15,0c1,5 1,10 5,14c3,2 6,2 9,2l-3,7l6,1l-1,5c9,2 18,7 28,5l5,15c-3,2 -6,-3 -9,-4l-3,3c-4,-2 -8,-3 -13,-3l6,7c-6,1 -13,0 -19,-2c5,4 10,9 13,16l4,-1l6,6l-1,6c5,5 9,13 18,13c21,4 42,-2 63,2c-8,-6 -18,-4 -26,-9c-5,-4 -5,-9 -4,-14l13,6l11,-9c-6,-2 -12,-5 -17,-10l8,1l-9,-13l12,6l6,-5l-7,-3l-1,-8l14,0l-8,-7c6,-1 12,-2 18,-5c0,6 0,12 -3,17l11,-5l-10,14l12,3l-8,12c8,2 15,-2 22,-5c-3,7 -9,11 -13,16l-2,10l-17,-3l1,12l4,-1l1,-4l6,1c7,1 12,-7 18,-4c-3,6 -10,9 -16,11l15,3c-4,2 -7,6 -10,10c6,1 12,0 18,-1l-5,-3l0,-6l8,0l1,-8l8,-2l-3,-11c3,-4 8,-1 12,-1l-7,-6c6,-6 11,-15 19,-18l7,14c1,7 0,15 7,19c4,-4 9,-7 11,-12c6,-12 11,-24 14,-37c-5,-1 -11,-2 -15,-5c7,-2 13,-7 17,-13c-5,-7 -7,-16 -5,-24c9,1 17,9 16,19l3,3c-5,5 -4,12 -3,19l16,-1l-1,6l9,1l-4,7l7,6c-4,0 -7,2 -10,1l-12,-6l-2,11l12,-2c-3,4 -5,9 -9,13l16,3c-3,1 -7,1 -9,5l17,0l-4,5l19,8l0,-7c-5,-4 -10,-7 -13,-13c9,3 18,7 28,9c-6,-6 -12,-15 -11,-24l5,-7l9,4c-1,-4 -3,-8 -2,-12l5,-6l3,5l4,-1l-6,9l12,1l-2,12l9,-1l-7,10l9,-2l-7,19l7,1l-10,15l12,-2l4,4l12,-10c0,9 -6,16 -13,21l7,6l6,-8l1,1l1,0l8,-4c-3,-5 -5,-10 -4,-15l16,1l-12,-8c6,-4 11,-9 15,-15c2,-3 6,-4 9,-5l9,17l0,17l7,1c-4,6 -11,9 -18,11l19,-4c-1,10 -11,14 -19,17l23,3c6,3 12,5 19,6l-8,-6c1,-3 0,-6 -2,-9l8,3c1,-3 -1,-6 -2,-9l8,-1l-3,-6l9,0c3,5 4,10 1,15l6,2l-3,8l12,-3l-6,9c18,4 36,8 55,8c7,-2 6,-9 5,-14c-4,0 -6,4 -9,6l-2,-6l-9,10l-7,-6c-7,1 -14,-1 -21,-3c3,-5 7,-9 13,-12c7,-3 11,-10 17,-17c3,-4 10,-5 14,-9c4,-6 8,-12 11,-20c-6,6 -11,13 -19,13c-4,0 -8,1 -11,-2c-2,-5 3,-9 5,-13l-2,-5l15,-10l3,-12c2,-5 7,-8 11,-11l-6,-1l10,-13l-2,-7c3,-6 7,-10 7,-16l-8,-1l-4,5l1,-5c-4,-2 -12,-2 -10,-8c5,-1 11,0 16,1l-3,-7c5,-3 9,-8 13,-12l-11,2l5,-6l-6,-5l4,-2l-6,-8l3,-5l0,-8c5,0 10,2 13,5l4,-1l-3,8l11,-2l-2,17l7,3l-9,10c2,6 2,12 2,18c8,1 17,-1 25,-2c-1,3 -5,7 -1,10c3,1 11,-1 11,5l-12,3c4,3 8,6 14,6l0,6c-6,0 -15,5 -18,-2c-3,-3 -7,-4 -11,-5l-4,14l19,-3c-1,8 -8,13 -14,17l11,6l0,9l15,-2l-14,-6l18,-4c6,5 14,9 23,6c-4,-3 -9,-4 -14,-5c1,-7 -3,-12 -6,-19c9,5 18,8 27,10c9,3 16,-4 24,-5l-2,-6c-8,3 -15,9 -25,8l2,-4c5,-1 11,-2 15,-5c-2,-2 -4,-6 -7,-5c-5,0 -8,4 -10,6l-6,-5l5,-6l-16,1l-7,-10c-3,-5 0,-12 0,-17c8,2 15,6 21,11c4,-1 5,-6 10,-7c3,-2 11,-4 9,-9l-14,-4c-6,-3 -10,-8 -14,-13l17,6c-3,-10 -14,-16 -17,-26l20,11c1,-2 4,-4 3,-7c-1,-4 -4,-7 -6,-11l-1,-12c7,3 15,3 24,2c-2,-7 -10,-9 -16,-13l16,-1l2,-4l9,5l4,-11l3,18c1,5 -4,9 -6,13l19,-8l-7,13l-11,10c7,5 14,7 23,6c-5,8 -11,15 -15,23c5,-1 11,-3 15,-6l-3,9c9,-4 16,-11 26,-13c-1,4 -2,9 -6,12l-20,17c2,4 5,10 1,14c-10,3 -21,2 -29,-5l-1,16c0,2 -1,5 2,5c3,3 7,-1 10,-2l-5,-5c8,1 15,3 22,2l16,-10l6,4l-4,6c-6,8 -18,6 -25,14c9,-1 19,-2 27,2l-1,6c-7,2 -13,7 -21,5l-1,4l-11,-1c5,5 9,12 16,13l21,0c-11,5 -23,4 -32,11l24,8l-17,2l1,5l-6,2l7,4l-2,5c-6,-3 -12,-5 -19,-4c3,3 5,6 8,7c7,6 17,2 26,5l0,-7l7,-1l-1,-10l6,-5l-6,-7l5,-2l7,-20c5,2 10,2 13,6c4,7 11,11 17,16c2,6 -5,10 -9,13l16,0c0,7 -3,13 -6,20l14,0c1,5 4,10 8,12c2,-3 10,-6 5,-9c-7,-6 -14,-15 -12,-24l16,13l-3,-8l21,5c0,-9 -9,-13 -14,-19l12,-1c-6,-7 -6,-17 -11,-25l12,4c-3,-5 -6,-10 -11,-14l14,2l-4,-16c5,-1 11,-1 15,4c-1,-6 -2,-11 -6,-16l4,1l4,-6c3,3 6,5 7,8l-2,14l10,-5l8,7l-3,14c-2,7 -7,12 -11,17c5,0 11,0 16,-2c5,-3 11,-6 18,-7c-3,8 -11,11 -17,15l-1,8c7,0 13,-3 18,-5c-2,11 -10,21 -18,30l2,6c7,-4 13,-9 21,-12c1,11 -12,13 -16,22l13,-5l2,7c-5,5 -10,10 -11,18c24,-2 48,-1 71,-5c-4,-2 -11,-5 -7,-12c7,0 15,-3 22,-6c-2,-4 -5,-7 -10,-9c2,-2 3,-5 6,-6l17,0c-7,-7 -19,-6 -28,-7l3,-5c-10,-1 -17,-8 -25,-12l3,-5c6,1 11,-1 14,-6c7,4 16,8 23,3l0,-7l-5,-2l-7,5l-3,-21c6,-1 11,-4 17,-7l1,9l5,-4l6,0c-3,-5 -7,-11 -6,-18c1,-4 5,-7 8,-10c3,2 5,5 9,6c7,-1 14,-5 16,-12l-6,3l-2,-11l-9,1l0,-5l6,-3l-5,-8l6,-7c10,5 21,5 32,6c-1,-3 -2,-7 -5,-8l-18,-6l-2,-13c6,-1 9,-4 11,-9l9,2l0,-7c8,-6 12,-14 16,-22l6,5l7,-8l7,0c1,6 -1,12 1,18s10,4 14,5l-4,16l8,-6l1,9c-2,4 -7,6 -11,9l16,10c-3,6 -7,13 -12,17l20,2l-4,12l-6,1l3,-11c-4,4 -5,10 -8,14c-8,6 -18,7 -27,6c9,9 23,1 33,-1c6,-2 12,-3 13,-9l16,1c0,-4 1,-9 -1,-13c-2,-6 0,-13 0,-20l5,0c1,-5 6,-7 11,-7c1,8 1,17 -5,23l8,10l9,2c-4,5 -10,5 -15,6c3,8 4,17 8,25c5,8 8,18 17,22c10,3 20,0 30,2c1,-6 -1,-11 -4,-15l7,0l4,-11l-6,1l-7,-11l2,-12l15,9c5,-6 11,-9 18,-11c-9,-3 -18,-6 -24,-14l14,4l-14,-20l16,8l9,-10l-7,3c-4,-4 -6,-10 -6,-16c7,1 14,3 21,0l-13,-10l21,-2l3,-5c2,8 4,17 -2,24c5,-2 9,-5 14,-6c-2,7 -8,13 -13,18c5,3 11,5 17,5l-11,18l12,-5l-1,7l12,-12c11,2 21,-5 32,-6l-3,-6l7,-1l-4,-7l12,-3c4,-5 6,-12 4,-18c-5,2 -11,3 -16,1l-4,7l-1,-8l-7,9l-10,-6l-11,4l13,-8l1,-4l-9,1c-4,-1 -3,-7 -4,-10l17,-2c-3,-3 -7,-6 -7,-10c9,-2 19,-2 27,1l1,-8l-15,1c6,-6 15,-4 22,-7l7,-7c-5,0 -10,-3 -15,-5l4,-6c-7,-6 -16,-10 -24,-13l1,-5c4,-1 10,0 13,-4c2,-2 0,-5 0,-7l-10,4l1,-9c5,1 11,2 14,-4l-5,-9c10,2 20,5 30,3c-1,-7 0,-14 2,-21l-11,-11l12,-7l-5,-2c1,-5 2,-11 0,-16l10,4l3,-4l-5,-7l6,2c3,-5 9,-7 15,-6l-1,10l4,3c-3,4 -5,9 -5,14l-4,7l8,5l-15,-2c4,6 10,10 15,15l-1,6l18,2c-3,2 -5,6 -7,9l-10,-8l5,9c-5,-2 -12,-3 -14,3c2,6 7,10 9,16c0,3 -3,4 -4,7c5,6 12,10 13,18l-6,0l9,7c4,6 5,13 6,19l19,13l-5,3l9,12l-2,6c-6,1 -11,3 -17,1c-8,-2 -13,-10 -18,-16c2,10 8,17 13,25c4,6 13,4 17,11c6,7 11,16 20,20c7,3 12,9 16,15l12,-3l-1,-5l-10,-7l1,-6c8,5 16,9 25,7l0,-1l1,-3l1,-1l-12,-9l-7,5c-8,-6 -17,-12 -19,-22c11,0 20,13 32,8c-4,-7 -11,-11 -18,-15l-2,-12c-7,-1 -12,-5 -15,-11c6,-1 11,-3 16,-6c8,8 19,15 31,11l-4,-5l-15,-2l3,-12c-6,-3 -11,-8 -9,-15l13,7c7,4 14,3 20,6c5,2 12,5 16,1c6,-4 12,-6 18,-6l0,-9l-8,1c-5,3 -8,7 -13,9l-14,0l1,-5c7,0 15,-2 21,-5c-1,-3 -2,-6 -5,-8l-12,1l-5,9c-2,-3 -5,-6 -9,-8l-1,-11c-4,2 -8,4 -13,4c-5,-6 -9,-13 -12,-20l3,-20c4,3 9,6 14,7c7,2 9,12 18,11l1,-8c9,-3 20,-5 22,-15l-21,-6c-7,-4 -14,-9 -19,-16c9,1 16,6 25,7l-7,-11c-5,-9 -17,-14 -18,-25c11,3 18,12 27,16c3,-4 5,-9 6,-13l5,4c2,-3 2,-7 1,-11l-8,5l-12,-13l6,-5l-6,-9c12,4 23,5 35,3c-1,-11 -15,-11 -20,-18l22,0l1,-8c4,4 9,6 14,8l2,-15c8,9 4,22 8,32c-4,3 -11,7 -9,13c8,-6 17,-11 27,-14l-11,21c-8,1 -11,8 -15,13l10,2l4,6c5,-2 11,-2 16,-2c-3,12 -16,20 -19,32c8,0 15,-4 22,-7c-3,3 -6,7 -6,12c5,-1 9,-5 12,-8c7,-5 15,-8 23,-11l-3,11l9,0l6,7l6,-3l-6,7l4,4l11,-4c-2,6 -1,12 0,18l-5,1c3,4 8,6 12,8c-4,4 -9,8 -11,13c1,7 3,14 2,21c10,1 20,0 29,-3l2,4l-6,8c5,3 11,3 16,2l-2,4l4,0l-2,6l-11,-6l1,8l5,0l0,5l9,-1l2,8l-20,4l2,3l-6,6l1,5l-13,8c7,11 22,4 30,13l-16,-1l0,8c10,-1 22,-4 31,2c-4,2 -7,5 -9,8l18,2l-2,9l-6,3l-6,-4l5,10l-12,7l-9,-11c1,4 0,8 2,12l8,6l-9,-1l-4,-14l-18,-1l-3,8l8,-1c2,5 3,10 9,12c11,5 24,6 37,8c5,-5 10,-11 13,-18l-8,-7c2,-13 20,-16 19,-29l-12,-4c1,-9 12,-11 17,-18c7,-8 8,-20 9,-31c5,-11 16,-18 24,-27l0,511zm-864,-313c-2,2 -4,5 -4,8c3,-1 8,-2 10,-6l-6,-2zm357,1l1,3l3,-1c0,-3 -2,-3 -4,-2zm-259,-10l7,8c6,-2 12,-8 10,-16c-7,1 -12,5 -17,8zm-339,3c-1,1 -1,3 1,3l4,0c2,-3 -3,-6 -5,-3zm148,-1l0,4c1,1 3,1 4,-1c2,-3 -3,-5 -4,-2l0,-1zm318,-6c2,2 2,6 5,6c2,-2 2,-6 3,-9l-8,3zm166,-1l-3,3c-1,1 -2,2 -1,4c3,1 8,-6 4,-7zm-29,-2l8,7l2,-8l-10,1zm-242,-1l6,7l6,-7l-12,0zm-172,-2c1,3 3,5 6,6l8,2c-2,-6 -9,-6 -14,-8zm652,-2l-2,3c0,2 1,3 2,3c3,0 3,-6 0,-6zm-1143,-23l-1,7c-7,-3 -15,-5 -22,-2c1,4 4,9 9,10c1,3 2,6 5,8c5,2 11,3 17,3c-4,-3 -9,-7 -9,-13c6,1 11,6 16,9l3,-3l-14,-19l-4,0zm1007,13c0,3 2,5 4,7l8,5c-4,-4 -7,-9 -12,-12zm-905,8l1,3l1,-1c1,-2 1,-3 -2,-2zm571,-20l1,7l8,1l0,14l6,-8l-2,-10l-13,-4zm-623,18l-1,3l8,-3l2,-3l-9,3zm860,-2l1,3l1,-1c1,-2 1,-3 -2,-2zm-1007,-6l1,7c3,1 7,1 10,-1l-11,-6zm384,3l0,3l3,0c1,-3 0,-4 -3,-3zm53,-4c-1,0 -2,1 -2,3l0,3c4,3 7,-9 2,-6zm-63,-17c-4,7 2,16 10,16c7,4 15,11 23,5c0,-4 -5,-6 -8,-9c1,-5 5,-2 7,0c4,2 8,2 12,2l2,-4l-8,-5l-13,0l-8,-5c0,4 2,9 4,12l-4,-1c0,-4 -1,-7 -3,-11c-4,2 -9,1 -14,0zm782,-6c-1,4 0,11 5,13l27,15l-14,-13c-2,-2 -2,-6 -5,-9l-9,0c-2,-1 -4,-4 -4,-6zm-143,23l11,5c1,-3 1,-7 3,-10c-6,0 -11,1 -14,5zm215,1l0,3l4,0c1,-3 0,-4 -4,-3zm-1192,-5l-10,-1l-12,4l24,3c5,-4 7,-10 10,-15c-4,3 -7,8 -12,9zm833,1c-1,1 0,3 1,3l3,0c2,-2 -2,-5 -4,-3zm-427,-5l1,7c4,0 4,-5 5,-7l-2,-1l-4,0l0,1zm643,-7c1,6 7,10 11,14c-1,-7 -3,-14 -8,-19l-3,5zm-89,6l1,7l3,1l0,-8l-4,0zm212,1l0,4l5,0c3,-3 -2,-7 -5,-4zm27,-2c-2,1 -1,3 0,4l4,0c2,-3 -2,-7 -4,-4zm-471,-19l-6,5l9,-2l-3,9c8,-5 16,-9 25,-9l-5,8l5,-2l1,12c7,-2 14,-1 20,3l3,-5c2,-1 5,-2 4,-5l-1,0l-2,-1l-1,0c-11,1 -18,-11 -29,-12c-7,0 -13,1 -19,-1l-1,0zm63,9l-1,12l16,2l1,-5l-13,-4c6,-4 12,-5 18,-7c-7,0 -14,0 -21,2zm-830,11l1,3l1,-2c1,-1 1,-2 -2,-1zm1016,-23c7,0 14,-2 21,1l0,5c-7,3 -14,3 -20,7l-6,-1c3,8 11,14 20,12l9,-12c-2,-6 3,-11 0,-17c-8,-2 -18,-2 -24,5zm-1488,21c0,2 1,3 2,3l4,-1c0,-3 -5,-3 -6,-2zm1611,-62l-3,13c5,5 10,10 17,13c9,2 14,12 21,17c9,5 16,12 23,19c4,1 4,-3 4,-6c-5,-6 -8,-13 -14,-18c-9,-8 -3,-21 -9,-30l-10,-3c-2,4 -4,8 -8,9l-10,-12l-1,6l-6,0c0,-3 -2,-6 -4,-9l0,1zm-1644,54l1,7l13,1l-14,-8zm1635,2c-1,2 0,3 2,4c1,2 3,2 4,2c1,-3 -4,-7 -6,-6zm-133,-8l4,5l-4,6l7,2c0,-4 2,-9 5,-12l7,0c-3,-7 -13,-4 -19,-1zm-219,8c-3,2 -3,3 -1,4c1,1 4,1 5,-1c2,-3 -3,-4 -4,-3zm458,-1c-2,2 0,3 2,3s4,0 4,-3s-5,-2 -6,0zm-813,-3l-2,2l2,2c3,-1 3,-3 0,-4zm-16,-1l5,2l5,1c0,-5 -7,-2 -10,-3zm53,-9l3,11l7,1l0,-8c-3,-3 -6,-4 -10,-4zm951,7c-1,2 1,4 3,4l4,0c-1,-3 -4,-5 -7,-4zm-1870,-27l-8,5l-6,-5l3,6l-17,14c6,2 14,1 21,0c-6,4 -13,6 -19,8l2,4c9,-1 17,-3 26,-6l-1,-5l1,0l2,-1l1,0l0,-5l8,-2c2,-4 6,-8 3,-13l-13,1l-3,8l-5,3c3,-3 6,-7 6,-12l-1,0zm601,18l0,8l5,-6l-5,-2zm465,1c1,3 3,7 7,7l0,-8l-7,1zm259,-20l-17,15c-7,2 -15,-1 -20,5c5,-1 11,0 15,3l7,-5c3,5 8,8 14,9l-4,-6l17,-1c-1,-4 -6,-3 -9,-4c5,-2 12,-1 16,-6c-5,-2 -9,-6 -10,-11l11,2l0,-11c-6,4 -13,8 -20,10zm-916,21l1,5c4,1 7,0 9,-3l-10,-2zm-293,0c-2,1 -2,2 -1,3s3,2 4,1c5,-2 0,-7 -3,-4zm-211,0c-2,2 -1,3 0,4l4,-1c2,-3 -3,-5 -4,-3zm1677,-8l-2,5l12,7l-10,-12zm-1481,4c-2,2 2,3 3,5l7,-1l3,-9l10,4l1,-4c-8,-1 -16,0 -24,5zm783,4l10,-2l-9,-7l-1,9zm37,-8l0,5l11,3l-1,-10l-10,2zm-755,-5c7,0 11,6 12,12c3,-1 5,-2 6,-4l-6,-2l4,-7c-5,-1 -12,-5 -16,1zm705,10l9,2l-4,-10c-2,2 -7,4 -5,8zm781,-8l0,6l7,3c4,-2 2,-6 2,-9l-9,0zm-1828,5l0,3l3,0c1,-3 0,-4 -3,-3zm-269,-5c-4,1 -5,4 -7,7c5,3 7,-1 9,-5l7,2l2,-4l-11,0zm664,-11l0,8l-9,2c3,2 4,6 6,9l11,-1l2,-3c-4,1 -9,1 -14,-1l8,-6l-4,-8zm-425,11l8,2l10,5c-3,-8 -11,-11 -18,-7zm1944,3l7,3l7,-1c-2,-6 -9,-4 -14,-2zm-1686,-20c2,8 7,15 12,21c3,-1 6,-3 9,-2c7,0 14,-2 21,-4c-5,0 -10,-2 -14,-6c-4,2 -9,4 -14,3c-6,-2 -10,-7 -14,-12zm1443,-16c-4,5 -9,8 -14,11c2,4 2,8 1,13l-5,1c-6,-1 -13,-2 -19,-5l-1,16c3,1 7,2 9,-2l-3,-4l17,2l11,-7l9,-1l6,-5l-5,-2c-1,-6 -6,-12 -2,-18l-4,1zm-583,29l0,3c0,1 1,2 3,0c2,-1 0,-6 -3,-3zm-714,-3c-2,1 -2,3 -2,4c1,2 2,3 4,2c3,-1 2,-7 -2,-6zm736,-3c-5,-1 -9,1 -12,3c1,8 13,9 15,1l7,3c0,-6 -6,-12 -10,-7zm-997,5l-1,4l10,-1c-2,-2 -6,-2 -9,-3zm306,-10c-1,4 -2,8 -7,8l-2,-6l-6,10c5,2 12,1 17,0c0,-4 1,-9 -2,-12zm-676,-5l-3,6l6,4l2,7c1,-2 2,-6 1,-9l-6,-4l5,-5l-5,1zm102,8l-2,9l4,0l0,-4l7,-5l-9,0zm19,0l9,7l0,-7l-9,0zm-156,3c-3,3 -1,4 2,4c2,0 5,-1 5,-4l-7,0zm1366,-2l0,4c0,2 2,2 3,1c3,-2 0,-7 -3,-5zm349,-2l-8,1l0,1l-1,2l12,2l0,-6l-3,0zm654,2l2,0l0,1c-1,2 -2,2 -2,-1zm-386,0l1,2l1,-1c1,-1 1,-2 -2,-1zm-1329,-7c0,4 2,5 5,7l9,2c-4,-4 -8,-9 -14,-9zm1606,7c4,-1 7,-4 10,-6l0,-10c-2,6 -8,10 -10,16zm-278,-9l5,3l0,5c9,0 9,-10 11,-16c-6,2 -12,3 -16,8zm194,3l0,4l4,0c1,-4 0,-5 -4,-4zm-1940,-2c2,1 3,3 4,6l11,-2l1,-10c-5,1 -11,3 -16,6zm-207,-2l14,-5l2,11l11,1l6,-5l-22,-8c-5,-1 -9,1 -11,6zm40,-1l-3,7l10,1l1,-2l-8,-3l7,-4l-7,1zm153,-1l4,3l-6,6l10,-2l-1,-6l-7,-1zm1704,0l3,8c4,-1 9,-2 11,-6l-14,-2zm-1263,1l-1,5l6,1l4,-6l-9,0zm1557,-6l1,4c4,3 9,9 14,5c0,-4 2,-8 -1,-10l-14,1zm-2207,3c-2,1 -3,2 -3,4s2,3 4,2c3,-1 3,-7 -1,-6zm267,1l0,4l3,0c3,-2 -1,-6 -3,-4zm1904,0c-1,0 -2,1 -1,3c0,1 1,2 3,2c3,-1 2,-6 -2,-5zm-451,3c6,1 11,2 17,1l-3,-4l-14,3zm67,-4l-2,2l2,2c3,-1 3,-2 0,-4zm-1417,-6l-4,3l0,4c3,2 7,-6 4,-7zm1791,6l2,-8c-5,0 -7,6 -2,8zm-2236,-7c1,3 5,4 7,5l0,-6l-7,1zm408,1l0,3l4,0c1,-3 0,-4 -4,-3zm1631,-2c-1,2 0,3 1,3l3,0c2,-3 -3,-5 -4,-3zm-1591,-6l0,5c1,2 2,3 4,3c1,-3 2,-9 -4,-8zm-554,5l8,3l-2,-6l-6,3zm802,-4l8,5c3,1 6,0 8,-4c-5,-2 -11,-1 -16,-1zm1604,0l0,4c2,1 4,2 5,0c3,-3 -2,-7 -5,-4zm-61,1l0,3l3,0c0,-3 -1,-4 -3,-3zm-1520,0l0,3l2,-2c1,-1 0,-2 -2,-1zm-239,-2l1,4l3,0c1,-3 0,-4 -4,-4zm1762,-8l4,11c5,-1 3,-7 5,-12l-9,1zm-406,10c3,0 8,3 9,-2l-4,-4l-5,6zm-1919,-6l-4,2l1,3c4,2 9,-5 3,-5zm398,1l0,3c1,1 3,1 4,-1c2,-3 -3,-5 -4,-2zm-217,0l8,3l-2,-6l-6,3zm2199,-1l1,3l3,-1c0,-3 -2,-3 -4,-2zm-2455,-3l0,5c7,-1 13,-5 16,-11c-5,2 -10,7 -16,6zm2476,0l-12,1l-1,0l0,3l-1,1c6,-1 12,-2 15,-5l-1,0zm-29,-1c-1,2 0,3 1,4l4,0c2,-3 -3,-6 -5,-4zm-2508,-2c6,2 12,8 18,4c-3,-5 -8,-7 -11,-12c-4,-1 -5,5 -7,8zm2443,1l0,3l3,0c1,-3 0,-4 -3,-3zm-2103,-3l-4,2l1,3c4,2 9,-5 3,-5zm235,-7c3,6 9,9 16,10l-1,-3l-15,-7zm1100,2c-5,2 0,10 5,8c6,0 9,-4 13,-8c-6,2 -12,1 -18,0zm-992,-11l2,6l-3,4l3,8l6,0c0,-5 -2,-9 -5,-13l8,1l-2,-8l-9,2zm-48,12c-2,1 -3,2 -2,4c0,1 2,3 4,2c4,-1 1,-7 -2,-6zm1893,-11c-3,4 -8,7 -13,8c9,-1 15,6 23,9l0,-7c3,-3 5,-7 5,-11l6,-4c-7,2 -14,6 -21,5zm-2927,13l0,4l4,0c1,-4 -1,-5 -4,-4zm2059,-2c-2,0 -3,2 -4,3c-1,2 0,3 2,3c4,0 7,-6 2,-6zm-1395,1l0,5c7,-1 13,-5 16,-11c-5,2 -10,7 -16,6zm-298,-31c-7,0 -13,2 -19,6c8,1 16,-2 23,2l-1,5l-27,7c6,7 15,9 24,11c-1,-6 3,-10 7,-14l-3,-3c3,-4 5,-8 6,-13l-7,-1l2,-8l-5,8zm791,20l-1,6c4,1 9,3 14,3c-2,-4 -4,-9 -3,-14l-10,5zm1673,8l3,-3l1,-5c-4,1 -7,5 -4,8zm-2435,-11l-4,10l11,-3l-1,-5l-6,-2zm652,-1l1,10l8,-2l-9,-8zm-718,5l0,3l7,0l0,-4l-7,1zm2553,-13c1,5 2,10 5,15l8,1l0,-11c-4,-4 -8,-7 -13,-5zm-1844,12l0,3l4,0c1,-3 0,-4 -4,-3zm1808,-3l-2,2l2,3c3,0 3,-5 0,-5zm-2517,-1c4,2 9,3 12,-1l8,-1l-5,-3c-6,0 -13,-2 -15,5zm-7,-1l0,2l2,0c1,-1 1,-2 -2,-2zm2347,-7c2,2 1,3 0,4c-2,2 -4,2 -5,2c-7,0 3,-5 5,-6zm-2359,2l0,3l3,1c1,-4 0,-5 -3,-4zm2102,-2l-2,3c0,1 0,2 2,3c4,1 5,-8 0,-6zm-1314,-4c-5,2 -13,-1 -15,6c3,4 8,3 12,4l2,-5l9,1c-2,-3 -5,-8 -8,-6zm-24,6l0,3l2,0c1,-1 2,-2 -2,-3zm-626,-1l-1,3l3,1c2,-2 1,-4 -2,-4zm2498,-47c-10,-5 -18,4 -27,7l-1,3l22,-2l15,4l-2,9c-7,1 -16,2 -19,9l-10,-5l-1,9c-5,1 -10,-6 -15,-2c1,5 5,5 9,6l2,7c8,5 18,7 28,4l0,-7c6,-4 10,-10 15,-15l-7,-3c2,-8 10,-13 11,-22l-12,-3c-1,2 -1,6 -3,7c-1,-7 3,-11 7,-16c-5,3 -9,6 -12,10zm-898,43l8,5l-5,-7l-3,2zm-984,5l0,-8c-6,-1 -6,9 0,8zm-637,-4l0,3l2,-1c1,-2 1,-3 -2,-2zm2408,1c4,0 9,0 13,-2c-5,-3 -8,-7 -11,-11c-3,4 -2,9 -2,13zm-2628,-23l-18,0l4,7l-4,-2c0,-3 0,-6 -2,-8l-11,0l-1,4c1,4 5,8 10,8l0,5l4,1l-3,3c7,2 15,4 23,4l0,-3l-9,0l16,-5c-4,-4 -7,-8 -8,-13l11,3l-2,-11c-4,1 -7,4 -10,7zm2677,13l1,6l15,3l-3,-12l-13,3zm112,-11l0,13l-1,1l-3,2l-1,1l2,2c7,1 13,-2 19,-4l-2,-10c-5,-1 -11,0 -14,-5zm-1962,10l-2,8l3,1l3,-7l-4,-2zm1780,6c4,3 9,4 14,2l-4,-12c-5,2 -7,6 -10,10zm-2162,-1l-1,3l3,1c2,-2 1,-4 -2,-4zm-21,-3l0,3l2,-1c1,-2 1,-3 -2,-2zm-265,-34c-4,4 -7,8 -12,10c1,5 2,9 1,13c-8,2 -17,1 -24,-4l0,17l9,-2l-4,-4l18,2c5,-3 9,-9 15,-7c5,1 8,-3 9,-7l-4,-1c0,-5 -6,-12 -1,-17c-2,-1 -5,-3 -7,0zm688,23l-4,-3l-10,10c8,1 16,5 24,5l15,-6l-1,-6c-6,1 -10,4 -14,7c-4,1 -11,2 -10,-3l11,-2c4,0 5,-4 2,-6c-4,-3 -11,-1 -13,4zm1756,7l-1,1l-1,2c2,7 10,-4 2,-3zm-2724,-5c4,0 7,3 10,6c4,2 7,4 11,1c-6,-5 -13,-7 -21,-7zm-78,3c-1,0 -2,2 -1,3c0,1 1,2 3,2c3,-1 1,-7 -2,-5zm2864,0c2,0 3,-1 4,-3l1,-4c-4,0 -4,4 -5,7zm-2423,-10l0,9l4,0l3,-7l-7,-2zm2454,-1c-3,-1 -6,-5 -10,-2c-4,1 -9,5 -5,9c4,3 8,4 13,3c2,-2 4,-5 4,-8l10,4c0,-2 1,-3 3,-4l-10,-7c-3,0 -4,3 -5,5zm-1877,-19l-1,5l1,1l3,0l1,1l-9,8l3,3l-10,11c5,-2 11,-2 16,-3l24,-10c-6,-1 -11,-2 -16,0l-12,-16zm-892,22l-11,-1l-11,4l25,4l9,-15c-4,3 -7,7 -12,8zm2316,2l-2,2l2,2c3,-1 3,-2 0,-4zm-1456,-8c1,3 0,10 5,9l2,-7l-7,-2zm1859,-1l-1,7l6,2c1,-3 2,-7 0,-10l-5,1zm-2200,-2l1,8l3,0l3,-7l-7,-2l0,1zm1399,1l0,4c1,2 2,2 4,1c2,-2 0,-7 -4,-5zm-1959,2l0,3l3,0c1,-3 0,-4 -3,-3zm238,-4l1,6c6,1 11,-1 14,-5l-15,-1zm-11,1l0,3l3,0c1,-3 0,-4 -3,-3zm-215,-1l0,3l2,-1c1,-2 1,-3 -2,-2zm-233,-5l-2,6l10,1l-3,-7l-5,0zm1564,-16c2,6 3,13 -3,16c6,1 13,-2 19,-3l-4,-8c-5,0 -9,-2 -12,-5zm-350,7c0,3 0,8 4,8c6,1 10,-3 14,-7l-18,-1zm-1046,-4c0,4 2,6 5,5l7,-4l-12,-1zm2914,-60l-3,1c-5,4 -13,7 -10,14c-5,1 -11,1 -13,6c-3,4 3,8 5,11c-2,3 -2,6 -2,10c-4,0 -8,1 -11,4l-9,-6l-4,6c-6,-4 -12,-10 -19,-11c-1,7 -2,14 1,20l-3,7c5,5 16,4 18,-4l-8,-4l20,2c4,1 9,2 13,0l18,-13c3,-1 5,3 7,4c7,-3 13,-8 17,-14c-5,-2 -10,0 -15,1l8,-5l-2,-7l-6,1c2,-3 4,-7 3,-10l-5,-5l0,-1l2,-2l7,0c-3,-2 -6,-5 -9,-5zm-2641,57l0,4l4,1c1,-3 -2,-6 -4,-5zm-554,1c-1,2 1,3 3,4c1,0 4,0 4,-2c-1,-3 -5,-4 -7,-2zm3194,-6l0,3l4,0c2,-3 -3,-5 -4,-3zm-3174,0l1,3l3,-1c0,-3 -2,-4 -4,-2zm-30,-9l1,8l7,0l-1,-9l-7,1zm3089,0l0,3l3,0c1,-3 0,-4 -3,-3zm-1773,-4l-1,0l-2,2l8,5l-5,-7zm1617,-11l-4,10c7,1 14,6 22,3c-7,-3 -8,-11 -5,-17c-3,4 -8,5 -13,4zm178,7l0,3l3,0c1,-3 0,-4 -3,-3zm-3249,-5c-1,1 0,3 1,4l3,0c2,-3 -2,-6 -4,-4zm3278,-11c-1,6 2,13 9,12c8,0 13,-6 18,-10c-9,1 -18,-1 -27,-2zm-3117,4l-20,-3l0,5c8,-2 16,0 23,5l0,-14l-3,7zm3094,4l0,2l1,0c2,-1 2,-2 -1,-2zm-50,-1l0,3l2,0c1,-1 2,-3 -2,-3zm54,-3c-1,1 0,2 1,3l4,0c2,-3 -3,-6 -5,-3zm-3239,1l0,3l2,-1c1,-2 1,-3 -2,-2zm1435,-11l0,4c1,1 2,2 3,1c3,-2 0,-8 -3,-5zm-1414,-1c-1,1 -2,2 -1,3c0,1 1,2 3,2c3,-1 1,-6 -2,-5zm65,-35l-10,8l0,2l-1,3l0,1l11,-4c1,5 -3,8 -6,11l2,8c-2,4 -7,6 -9,10c5,-1 9,-5 13,-8l-2,-4c3,-4 8,-8 5,-14l6,-9l-9,-4zm-216,29l0,4l4,0c2,-3 -2,-6 -4,-4zm111,-1l0,2l2,0c1,-1 1,-2 -2,-2zm-129,-7l0,8c5,0 7,-4 7,-8l-7,0zm209,-8l1,9c5,-1 8,-6 5,-10l-6,1zm3170,-1l0,3c1,2 2,2 4,1c3,-2 -1,-7 -4,-4zm-3368,-17l-1,13c5,1 9,-1 13,-3l-3,10l7,-1l1,-9l-17,-10zm24,14l-2,2l2,2c3,-1 3,-2 0,-4zm3339,-1l0,4c1,1 3,1 4,-1c3,-2 -2,-6 -4,-3zm-3446,-13c-1,2 -1,3 1,4c1,1 2,1 3,-1c3,-2 -2,-5 -4,-3zm134,-8l0,8c5,0 8,-5 5,-9l-5,1zm-158,-9l0,7l-7,3c6,0 12,2 17,5l9,-5l-11,-1l12,-4c-3,-7 -13,-7 -20,-5zm44,9l0,4l3,0c1,-4 0,-5 -3,-4zm3471,1l0,2l1,0c2,-1 3,-2 -1,-2zm-3456,-8l0,2l2,0c1,-1 2,-2 -2,-2zm101,-1l0,3l2,-1c1,-2 1,-3 -2,-2zm-130,-8c3,2 2,7 2,10c6,-1 4,-8 4,-12c-3,-2 -4,1 -6,2zm28,-3l-4,2c-1,2 -1,3 1,4c4,1 6,-5 3,-6zm3426,1l1,2l1,-1c1,-1 1,-3 -2,-1zm-3557,-18c3,7 7,13 12,18l2,-7l-14,-11zm98,9l-2,3c4,1 10,6 12,0c-1,-4 -6,-2 -10,-3zm23,0l0,3l3,0c1,-3 0,-5 -3,-3zm-295,-11c-3,1 -3,5 -4,8c5,0 7,-4 9,-8l7,3l2,-4c-5,0 -10,-1 -14,1zm12,-18c4,4 8,8 8,13l3,-2l-1,-8l-10,-3zm-34,7l-1,5c3,-1 7,-2 9,-5l-8,0zm149,-2c-1,2 0,3 2,3c2,1 4,0 4,-2c0,-3 -5,-3 -6,-1zm145,-3c0,6 6,3 9,4l0,-5l-9,1zm-247,-13c1,4 -1,9 2,12l11,2l6,-6l-19,-8zm26,4l0,8l10,0l-8,-6l7,-3l-9,1zm-58,-3c-2,0 -3,1 -4,3c-1,1 -1,3 1,3c4,1 7,-5 3,-6zm143,-3l-2,3c0,2 0,3 2,4c4,0 5,-8 0,-7zm4,-9l1,4l5,0l2,-5l-8,1zm-121,-8c-1,2 1,4 2,4c2,1 4,0 5,-2c-1,-3 -5,-4 -7,-2zm-45,-46l2,2l-2,2l0,-4z" fill="#02213F" id="svg_12"/></svg>