<svg width="4000" height="1000" xmlns="http://www.w3.org/2000/svg" xmlns:svg="http://www.w3.org/2000/svg"><path xmlns="http://www.w3.org/2000/svg" d="m3169,281l5,-3c15,-7 30,-15 46,-19c8,-2 15,0 22,1l6,2l-2,2c-15,0 -23,5 -26,7c-2,1 -3,6 0,6c14,1 26,8 31,11c2,2 7,7 2,9c-14,5 -15,13 -6,19c-3,4 0,10 1,14c1,6 -3,16 -7,23c-21,35 -81,50 -118,54c-31,2 -75,2 -93,6c-19,5 -39,8 -53,10c-10,1 -21,1 -30,-1c-8,7 -59,11 -88,13s-53,-1 -82,0c-8,0 -19,-4 -26,-5c-6,0 -14,1 -20,-1c-4,-1 -5,-4 -12,-8c-4,-2 -12,-2 -17,-7l16,-1c2,0 9,-3 2,-4c-5,0 -20,2 -32,0c10,-2 34,-7 39,-12c2,-1 1,-4 -1,-4c-4,1 -35,2 -45,-1c20,-3 36,-6 41,-11l41,-9c15,-4 30,-2 44,-9c27,-16 55,-32 87,-37c20,-4 41,-5 61,-11c17,-4 32,-10 48,-18c17,-8 35,-13 54,-14c13,5 9,16 7,20c-4,12 -23,27 -33,30c-3,0 -3,4 0,4c7,1 28,-3 41,-10c32,-17 64,-32 97,-46zm-702,153c-12,0 -20,-2 -32,-3c-15,-1 -27,4 -58,-1c-51,-8 -85,-33 -122,-43c-31,-9 -64,-10 -96,-17c-41,-9 -90,-25 -125,-44c-43,-23 -130,-46 -164,-54l-30,-3c-3,0 -24,2 -45,8c-32,10 -69,27 -73,28c-66,13 -164,54 -207,67c-17,5 -44,15 -51,13c-2,0 -5,-5 -8,-5c-13,2 -41,19 -59,21c-37,3 -91,-10 -164,-5c-34,2 -61,16 -119,16c-30,0 -84,-12 -121,-26c-29,-8 -71,-19 -91,-21c-18,-2 -48,-6 -73,-1c-16,3 -29,11 -33,8c-6,-7 4,-24 16,-33c12,-10 44,-14 59,-26c15,-11 32,-35 45,-42c10,-5 22,-6 33,-5c-7,-7 -5,-12 1,-17c-18,-13 -40,-19 -58,-23l25,-1c15,-1 29,-8 44,-10c18,-2 36,5 54,8c12,3 23,-3 35,-4c10,-2 20,1 30,2c25,2 48,-8 72,-9c-20,4 -40,12 -56,25c-17,13 -57,44 -77,47c-4,0 -39,18 -56,22c-13,4 -30,1 -39,2c-6,0 -13,4 -13,4l52,7c9,0 21,7 17,10c-2,3 -6,4 -30,4l45,5c32,2 58,1 82,0l-60,-13c-6,-1 -19,-2 -19,-4c2,-5 19,-8 26,-8c20,0 80,6 96,6l0,-4c-9,0 -17,-7 -18,-10c-2,-5 5,-13 11,-12c14,0 54,-2 67,3c3,1 13,-3 13,-3c-8,0 -25,-8 -30,-13c-4,-4 -8,-9 -7,-14c2,-9 17,-31 23,-38c1,-2 10,-2 17,-2l20,14c29,21 61,37 91,55c37,19 79,30 121,32l18,1l19,-1c13,-1 24,-6 36,-10l46,-16l43,-19c37,-13 72,-31 106,-50l22,-9l10,-3l38,-10l3,3c3,1 12,-2 18,-1c10,1 32,0 41,8c3,4 -18,6 -17,8s16,4 20,6s4,5 3,8c-3,8 -15,10 -15,11c0,3 21,2 21,2l33,6l52,13l-36,-20l8,-13s33,3 49,7c20,5 45,13 67,22l75,38s-15,-11 -21,-19s-16,-21 -16,-32c0,-8 4,-19 12,-21c16,-4 65,-2 80,-5l12,-2c19,0 36,-8 53,-12c10,-2 21,-3 31,-1l20,22c10,10 22,26 34,35c11,10 26,15 38,23c15,11 34,46 61,61c17,10 38,10 60,9l11,-1c3,-1 3,-4 0,-4c-7,0 -27,-2 -37,-8c-10,-5 -21,-10 -29,-17c-6,-5 -18,-16 -15,-21c1,-2 16,-1 23,0c9,2 24,7 28,10c3,2 6,0 4,-2c-4,-4 -21,-13 -32,-18l-31,-11c-17,-6 -47,-14 -69,-28c-14,-9 -30,-24 -37,-33l-2,-5c11,5 23,9 34,15c20,9 38,23 59,32c36,17 73,31 111,46c25,10 51,19 77,27l-1,4c-8,3 -27,-1 -32,-4c-2,-2 -4,0 -3,0c7,9 35,17 46,19c5,1 7,8 16,13c15,10 26,11 31,15c2,1 0,6 -2,6c-6,0 -29,-1 -35,-5c-2,-1 -4,2 -1,3c4,3 18,9 30,11l-19,-2c-7,-1 -18,0 -25,2c-14,3 -41,15 -56,19c-9,3 -28,4 -28,4l-1,1zm-2467,-34l0,-38c22,-11 45,-22 68,-30c17,-5 35,-8 53,-12c33,-8 68,-14 102,-23l92,-24c25,-9 52,-16 79,-17l24,-1l21,0c-19,-1 -78,2 -108,21c-35,22 -87,55 -113,82c-12,12 -19,36 -46,41c-18,4 -46,-8 -68,-5c-22,2 -50,17 -68,17c-12,0 -27,-8 -36,-11zm568,-132c16,2 33,-1 48,-3l44,-9c16,-4 32,-12 48,-17c27,-11 54,-18 82,-25c11,-4 22,-4 33,-2l10,2l-19,1c-13,2 -28,9 -40,15c-21,9 -54,33 -86,41c-50,14 -101,12 -114,2l-6,-5zm1391,-85l3,3c2,1 6,-1 8,-1l13,5l0,4c-3,0 -3,2 0,5c-11,1 -22,1 -23,7c0,0 9,0 13,2l11,9c-4,3 -1,5 2,9c0,0 -23,-5 -26,2c-1,3 26,20 26,20c-31,-12 -74,-25 -127,-39l1,0c35,0 66,-15 99,-26z" fill="#155798" id="svg_5"/></svg>