<svg width="4000" height="1000" xmlns="http://www.w3.org/2000/svg" xmlns:svg="http://www.w3.org/2000/svg"><path xmlns="http://www.w3.org/2000/svg" d="m1830,81c23,-15 55,-16 83,-21c-32,8 -63,15 -91,32l-4,8c-22,8 -47,9 -69,18c33,2 65,-15 98,-14c-132,29 -265,60 -397,86c38,-32 94,-25 130,-60c30,-5 57,-21 88,-20c20,6 37,-5 56,-6c7,-22 34,-31 54,-22c17,8 34,-4 52,-1zm576,28c84,-1 168,-1 251,16c10,2 21,4 27,13c-38,23 -84,29 -127,39l-1,5c10,2 20,3 29,7c-45,1 -90,-2 -134,7c25,8 54,8 79,17c-64,-1 -129,0 -192,-11l0,-8c83,-20 168,-32 251,-52c-3,-4 -7,-6 -13,-6c-57,-6 -114,-17 -170,-27zm-391,75c101,-10 203,-23 304,-32l0,6c-50,9 -101,15 -150,28l-1,6c12,0 23,-2 35,-1c-45,15 -94,16 -140,24c-11,-5 -41,1 -24,-18l-1,-9c-8,0 -19,6 -23,-4zm36,15c23,18 55,-6 82,-4l0,-8c-27,1 -55,5 -82,12zm681,-33c63,-9 125,12 188,8c-45,12 -95,13 -139,28c28,0 56,-3 84,-1c-90,9 -179,21 -268,38c-71,10 -144,15 -215,25c-10,0 -24,9 -28,-4c79,-24 165,-30 247,-49c16,-15 36,-24 59,-25c20,-18 49,-11 72,-20zm198,60c18,-1 37,-6 55,-4c-40,13 -90,12 -125,30c17,5 34,2 51,3l-12,7c29,0 58,-4 88,-1c-33,9 -73,23 -105,9c-43,2 -87,-3 -130,5c-8,-3 -3,-12 2,-15c-66,7 -131,20 -197,25l0,-9c123,-23 249,-33 373,-50z" fill="#BED8F8" id="svg_1"/></svg>