<svg width="4000" height="1000" xmlns="http://www.w3.org/2000/svg" xmlns:svg="http://www.w3.org/2000/svg"><path xmlns="http://www.w3.org/2000/svg" d="m0,408s1229,-15 1235,-22c8,-10 23,-16 37,-15c19,0 37,-2 56,-5c20,-3 40,-2 60,-6c31,-3 61,-6 91,-15c23,-7 48,-9 71,-17c40,-13 80,-24 119,-41c20,-7 40,-15 61,-21c29,-10 61,-6 90,2l44,8c22,3 44,9 65,13c19,4 37,9 54,16c11,4 23,9 35,9c19,0 39,1 58,6c13,4 26,10 39,13l41,12c24,8 50,13 76,17c22,3 43,7 64,14c52,18 105,35 158,49c11,3 22,-2 33,2c4,2 8,6 10,10l388,0c47,-1 79,-3 80,-4c6,-11 14,-19 25,-25c19,-11 38,-24 60,-26l33,-7l44,-11c59,-12 119,-23 179,-33c30,-6 62,-10 92,-18c39,-11 78,-21 118,-23c23,0 45,-2 67,3c17,3 34,6 49,13c23,10 45,23 69,34c15,6 28,16 43,23c16,8 34,14 51,22c16,7 35,14 52,9c7,-2 14,-1 21,0c20,2 39,-1 58,-3c15,-1 27,12 42,11l32,1l0,597l-4000,0l0,-592z" fill="#0C4E8F" id="svg_6"/></svg>